<?xml version="1.0" encoding="UTF-8" standalone="no"?>
<!-- Created with Inkscape (http://www.inkscape.org/) -->

<svg
   width="100mm"
   height="100mm"
   viewBox="0 0 100 100"
   version="1.1"
   id="svg5"
   inkscape:version="1.1 (ce6663b3b7, 2021-05-25)"
   sodipodi:docname="commander.svg"
   xmlns:inkscape="http://www.inkscape.org/namespaces/inkscape"
   xmlns:sodipodi="http://sodipodi.sourceforge.net/DTD/sodipodi-0.dtd"
   xmlns="http://www.w3.org/2000/svg"
   xmlns:svg="http://www.w3.org/2000/svg">
  <sodipodi:namedview
     id="namedview7"
     pagecolor="#ffffff"
     bordercolor="#666666"
     borderopacity="1.0"
     inkscape:pageshadow="2"
     inkscape:pageopacity="0.0"
     inkscape:pagecheckerboard="0"
     inkscape:document-units="mm"
     showgrid="false"
     inkscape:zoom="1.2881734"
     inkscape:cx="178.93554"
     inkscape:cy="213.86872"
     inkscape:window-width="1535"
     inkscape:window-height="876"
     inkscape:window-x="65"
     inkscape:window-y="24"
     inkscape:window-maximized="1"
     inkscape:current-layer="layer1"
     fit-margin-top="0"
     fit-margin-left="0"
     fit-margin-right="0"
     fit-margin-bottom="0" />
  <defs
     id="defs2" />
  <g
     inkscape:label="Calque 1"
     inkscape:groupmode="layer"
     id="layer1"
     transform="translate(44.828686,-107.4253)">
    <path
       style="fill:#003f66;fill-opacity:1;stroke:#69ffff;stroke-width:0.264583px;stroke-linecap:butt;stroke-linejoin:miter;stroke-opacity:1"
       d="m 50.039191,207.88568 c -0.335792,-4.49191 -0.214478,-8.85096 -1.007377,-13.47573 -0.506266,-3.3385 -1.088339,-5.57937 -1.634791,-8.33599 -0.369503,-1.366 -0.686982,-4.67497 -1.017046,-7.51392 -0.922921,-1.69552 -1.491709,-1.29151 -2.136776,-1.65322 l -0.20891,-0.54736 c -0.20097,-0.80966 -3.4772,-1.58726 -4.128721,-1.09415 -0.366841,0.29898 -0.511647,0.58624 -0.638702,0.87256 -4.772419,-0.74146 -9.308783,-1.68554 -13.650508,-3.16567 -4.355429,-1.70665 -5.421966,-2.56027 -6.835483,-3.49646 -1.361753,-1.02859 -2.991728,-3.26147 -3.287214,-3.90543 -0.09492,-1.10658 0.09044,-2.78871 0.291702,-4.50353 0.74933,-0.71441 1.275892,-2.84449 1.928746,-4.45267 0.352971,0.0519 0.459769,0.80507 1.426046,0.0973 0.659567,-0.88015 1.071389,-4.14997 1.923683,-8.66479 0.119154,-0.63119 0.924781,-1.37175 0.752566,-2.02819 -0.13329,-0.54262 -0.20642,-0.35905 -0.557394,-0.58566 -0.848067,0.42048 -1.686603,0.82224 -2.114501,0.41707 -0.379029,-0.7067 -0.06084,-1.41339 0.188846,-2.12009 0.422681,-0.29363 0.855605,-0.68472 1.31932,-1.36874 l 0.268118,-1.94439 c 1.068599,-0.60801 1.963643,-1.39017 2.760481,-1.92072 2.047999,-1.47822 2.776545,-4.57526 2.940064,-5.78205 0.235189,-3.00748 -1.062468,-4.69346 -2.28844,-6.38668 -2.220462,-2.82051 -5.322939,-4.01666 -8.330566,-5.38749 -5.039795,-1.32662 -9.3710984,-1.46649 -13.6367306,-1.49635 -3.6974346,0.42901 -6.4176646,1.10263 -8.7187084,2.02187 -4.830577,2.09255 -6.127638,3.62797 -8.069453,5.33564 -0.771153,0.98397 -1.733888,2.18001 -2.714441,5.75398 -0.343704,1.57819 0.215985,3.13122 0.686622,4.68093 0.727415,1.12204 1.397198,2.2533 2.664118,3.28901 l 3.105232,1.9991 c 0.333201,0.25758 0.582669,0.89919 0.795043,1.71092 l 1.152827,1.17739 c 0.658418,1.21505 0.498016,0.92289 0.799051,2.19294 v 0 c 0.0095,0.4711 -0.420424,0.24868 -0.720738,0.23082 -0.544744,-0.27911 -1.089489,-0.64977 -1.634233,-0.46932 -0.509956,0.51307 -0.508216,0.92957 -0.518627,1.34837 0.880316,2.60058 -0.483801,-1.54795 2.624,7.05851 l 0.584454,0.78852 c 0.638323,0.0889 1.976011,4.40558 3.1966618,5.74337 l 0.1786615,4.07773 c -1.3283053,1.15113 -1.4454113,2.35712 -2.0115583,3.54277 -1.276702,1.60218 -3.210176,1.80138 -4.884634,2.55389 l -18.146681,4.11991 c -0.406409,-0.94067 -0.739585,-1.03735 -1.061188,-1.00068 -1.168493,0.0461 -2.185483,-0.0626 -3.947812,0.59068 l -0.107,0.991 c -1.323269,0.66396 -1.577491,0.99581 -1.997,1.379 -0.555787,2.50467 -1.286064,5.00933 -1.477,7.514 l -1.839863,21.812"
       id="path1175"
       sodipodi:nodetypes="ccccccccccccccsccccccccccccccccccccccccccccccccccccc" />
  </g>
</svg>
