<?xml version="1.0" encoding="UTF-8" standalone="no"?>
<svg
   xmlns:dc="http://purl.org/dc/elements/1.1/"
   xmlns:cc="http://creativecommons.org/ns#"
   xmlns:rdf="http://www.w3.org/1999/02/22-rdf-syntax-ns#"
   xmlns:svg="http://www.w3.org/2000/svg"
   xmlns="http://www.w3.org/2000/svg"
   xmlns:sodipodi="http://sodipodi.sourceforge.net/DTD/sodipodi-0.dtd"
   xmlns:inkscape="http://www.inkscape.org/namespaces/inkscape"
   width="61.221737mm"
   height="78.19207mm"
   viewBox="0 0 61.221737 78.19207"
   version="1.1"
   id="svg8"
   inkscape:version="1.0.2 (394de47547, 2021-03-26)"
   sodipodi:docname="open.svg">
  <defs
     id="defs2">
    <clipPath
       clipPathUnits="userSpaceOnUse"
       id="clipPath1219">
      <path
         id="path1221"
         style="fill:#ff0000;fill-opacity:1;fill-rule:nonzero;stroke:none;stroke-width:0.264583"
         d="m 128.61869,112.99775 -0.002,0.002 h 0.001 10e-4 l -5.3e-4,-5.2e-4 z m -0.002,0.002 -46.616791,5.3e-4 v 72.00025 h 55.000311 v -63.89481 c -0.0982,0.11146 -0.23008,0.25678 -0.25321,0.24133 -0.005,-0.003 -0.009,-0.007 -0.0145,-0.0103 -0.16602,0.16583 -0.33201,0.33196 -0.49816,0.49764 -0.19162,0.19207 -0.37874,0.38863 -0.57774,0.57309 -0.0223,0.0203 -0.0426,0.0436 -0.0672,0.061 -0.0146,0.0104 0.0257,-0.0252 0.0367,-0.0393 0.002,-0.003 0.005,-0.0139 0.003,-0.0108 -0.0975,0.11264 -0.18338,0.23551 -0.28267,0.34675 -0.88036,0.98637 -1.80331,1.24721 -2.4598,1.04335 -0.10812,0.15111 -0.23693,0.29094 -0.38396,0.43666 -0.0917,0.0906 -0.18554,0.18464 -0.28525,0.2682 -0.018,0.0223 -0.0359,0.0444 -0.0532,0.0672 -0.0229,0.03 -0.0361,0.0699 -0.0672,0.0915 -0.0182,0.0126 0.0365,-0.0805 0.0243,-0.062 -0.0507,0.0766 -0.0895,0.16045 -0.14004,0.23719 -0.0863,0.13105 -0.15799,0.21124 -0.25528,0.32711 -0.16677,0.1859 -0.33782,0.36683 -0.51935,0.53847 -0.20304,0.20394 -0.39153,0.4235 -0.62218,0.59841 -2.48508,1.88452 -4.50685,-0.26442 -2.53835,-2.21588 0.0729,-0.44168 0.36831,-1.11965 0.61753,-1.7477 -0.11426,0.0923 -0.22662,0.18704 -0.34313,0.27647 -0.15011,0.11523 -0.30374,0.22532 -0.45579,0.33797 -0.22539,0.16043 -0.45897,0.31032 -0.69659,0.45268 -0.0253,0.0322 -0.0802,0.0582 -0.13901,0.0832 -0.0341,0.0196 -0.0669,0.0414 -0.10129,0.0605 -0.0671,0.0373 -0.15779,0.16583 -0.20515,0.10542 -0.003,-0.004 -0.006,-0.007 -0.009,-0.0114 0.01,-0.005 0.0174,-0.008 0.0274,-0.0129 0.0406,-0.02 0.0814,-0.04 0.12196,-0.06 0.0403,-0.0305 0.10467,-0.0556 0.16588,-0.0816 0.0469,-0.0269 0.0926,-0.0554 0.13901,-0.0832 0.0162,-0.0206 0.0201,-0.0435 0.006,-0.0708 -0.30966,-0.56811 -0.59194,-0.9958 -0.8444,-1.33067 -0.0623,0.0292 -0.12725,0.054 -0.19275,0.0775 -0.0773,0.20528 -0.1563,0.41244 -0.22479,0.60823 -0.403,-0.44744 -0.70478,-0.73544 -0.92294,-0.9493 -0.97981,-0.32343 -0.77577,-0.61467 -0.16433,-0.894 -0.21582,-0.0524 -0.33156,-0.1769 -0.37156,-0.34778 -0.35096,0.12017 -0.42441,0.11403 -0.0196,-0.11007 -0.006,-0.0973 0.009,-0.20554 0.032,-0.3173 -0.25402,-0.0624 -0.31633,-0.34289 -0.031,-1.01802 0.03,-0.071 0.0604,-0.1419 0.0904,-0.21291 0.0393,-0.0693 0.0773,-0.13914 0.11782,-0.20774 0.0711,-0.12046 0.16448,-0.22681 0.24029,-0.34416 0.0777,-0.10263 0.093,-0.12194 0.13953,-0.1788 0.15517,-0.35628 0.44859,-0.59266 0.75965,-0.80977 0.12485,-0.0872 0.27058,-0.14334 0.38447,-0.24753 -0.79569,-0.0559 -1.2721,-0.2951 -0.44132,-1.20355 0.0709,-0.0775 0.15878,-0.1575 0.25218,-0.23512 0.0161,-0.0254 0.0323,-0.0517 0.0486,-0.077 0.0403,-0.0379 0.0802,-0.0762 0.12092,-0.11369 0.013,-0.0162 0.032,-0.0441 0.0424,-0.0558 0.0311,-0.0355 0.0858,-0.0843 0.1416,-0.13281 0.0606,-0.0741 0.11873,-0.14158 0.18758,-0.21497 0.10924,-0.12088 0.14574,-0.16454 0.3235,-0.30024 0.009,-0.007 0.019,-0.0121 0.0284,-0.0186 0.0663,-0.0969 0.0102,-0.034 0.185,-0.17829 l 0.003,-0.003 c 0.0248,-0.0292 0.0485,-0.0591 0.0749,-0.0868 0.13272,-0.13899 0.27735,-0.26817 0.43821,-0.3731 0.0452,-0.0431 0.0975,-0.086 0.15969,-0.13178 0.0338,-0.0414 0.0669,-0.0831 0.1018,-0.12351 0.009,-0.011 0.0358,-0.0335 0.062,-0.0584 0.11404,-0.16155 0.25863,-0.30548 0.41393,-0.4284 0.0928,-0.10841 0.18912,-0.2129 0.29249,-0.31212 z m -4.18316,7.39801 c 0.002,0.0391 0.0114,0.0744 0.0196,0.11007 0.25456,-0.0872 0.65971,-0.2427 1.10071,-0.41445 -0.0775,-0.0494 -0.12912,-0.0825 -0.22996,-0.14573 -0.003,-0.009 -0.007,-0.0186 -0.0104,-0.0279 -0.045,0.0167 -0.0858,0.0286 -0.12919,0.0434 -0.14914,0.099 -0.29931,0.19392 -0.4532,0.27388 -0.13142,0.0683 -0.21226,0.11343 -0.29766,0.16072 z m 3.69745,-6.68487 c 0.0471,-0.0281 -0.0989,0.0475 -0.14831,0.0713 -0.015,0.0105 -0.0233,0.0171 -0.0372,0.0263 0.0624,-0.0314 0.12563,-0.062 0.18551,-0.0977 z m -0.17415,0.11627 c -0.004,0.002 -0.049,0.0247 -0.12505,0.0651 -0.003,0.009 -0.005,0.0184 -0.008,0.0274 0.0775,-0.0534 0.12869,-0.0879 0.13281,-0.0925 z m -0.42839,0.28784 c -0.0569,0.0377 -0.10196,0.0908 -0.14366,0.14883 0.0258,-0.0236 0.0507,-0.0478 0.077,-0.0703 0.0217,-0.0257 0.044,-0.0546 0.0667,-0.0786 z m -0.15348,0.14211 c 0.0268,-0.0241 -0.06,0.0407 -0.0899,0.061 -0.0471,0.0465 -0.0942,0.0928 -0.14108,0.13953 0.0646,-0.0549 0.10998,-0.0918 0.231,-0.20051 z m -0.28112,0.31678 c -0.008,0.005 -0.0164,0.009 -0.0243,0.0139 0.008,-0.004 0.032,-0.0183 0.0243,-0.0134 z m -0.0243,0.0139 c -0.0161,0.009 -0.0318,0.0165 -0.0465,0.0269 -0.006,0.004 -0.006,0.004 -0.0119,0.008 0.0196,-0.0112 0.039,-0.0225 0.0584,-0.0341 z m -0.23048,0.16847 c -0.0134,0.0124 -0.0217,0.0189 -0.0439,0.0398 -0.003,0.004 -0.005,0.007 -0.007,0.0103 0.004,-0.003 0.0139,-0.0134 0.0119,-0.009 -0.0199,0.0332 -0.0887,0.12845 -0.0646,0.0987 0.0641,-0.0807 0.0771,-0.10193 0.10387,-0.13901 z m -0.30334,0.31833 c 0.10083,-0.0805 0.13002,-0.10081 -0.0842,0.0589 -0.008,0.01 -0.0158,0.0205 -0.0238,0.0305 0.0378,-0.0312 0.0781,-0.0655 0.10801,-0.0894 z m -0.12454,0.11317 c 0.002,-0.002 -0.005,0.003 -0.004,0.002 -10e-4,0.002 -0.003,0.003 -0.004,0.005 0.002,-0.002 0.005,-0.005 0.008,-0.007 z m -0.0847,0.0651 c -0.008,0.008 -0.02,0.0171 -0.0258,0.0233 -0.0119,0.0149 -0.0218,0.0315 -0.0331,0.047 0.004,-0.004 0.008,-0.008 0.0124,-0.0119 0.0159,-0.0204 0.0314,-0.0397 0.0465,-0.0584 z m 0.20258,0.006 c -0.006,-0.0163 -0.20971,0.10023 -0.3328,0.1912 -0.009,0.0104 -0.0173,0.0208 -0.0264,0.031 0.0868,-0.0568 0.17707,-0.10639 0.26924,-0.14159 0.0242,-0.0195 0.05,-0.0372 0.0729,-0.0584 0.0121,-0.0111 0.0162,-0.0183 0.0171,-0.0222 z m -0.41652,0.21962 c 0.003,-0.004 -0.006,0.006 -0.009,0.009 -0.0504,0.0604 -0.0727,0.0864 -0.10077,0.11885 0.002,-10e-4 0.003,-0.003 0.005,-0.004 0.0351,-0.0412 0.0704,-0.0823 0.10542,-0.1235 z m 0.12816,0.006 c -2.6e-4,2.2e-4 -7.9e-4,0 -0.001,5.3e-4 5.3e-4,-4e-5 5.3e-4,3e-5 0.001,0 z m 0,5.3e-4 c 5.3e-4,-4e-5 5.3e-4,3e-5 10e-4,0 v -5.3e-4 c -2.6e-4,2.2e-4 -8e-4,-2e-5 -10e-4,5.3e-4 z m -0.001,0 c -0.0256,0.002 -0.0372,0.003 -0.0646,0.005 -0.0259,0.0288 -0.0498,0.0598 -0.0749,0.0894 0.0469,-0.0307 0.0928,-0.0631 0.13952,-0.094 z m -0.2806,0.17105 c -5.3e-4,0.002 2.6e-4,0.002 -0.002,0.004 l 0.003,-0.003 z m 1.26039,3.53467 c -0.3496,0.0713 -0.81791,0.27569 -1.28364,0.47542 0.049,0.10579 0.0741,0.1621 0.10696,0.2341 0.22252,-0.0873 0.42574,-0.16586 0.64751,-0.2527 0.1791,-0.14913 0.3555,-0.30105 0.52917,-0.45682 z m -1.3066,3.50727 c 0.23832,0.26462 0.4995,0.56914 0.80047,0.95239 -1.19237,0.57645 -1.1063,-0.0778 -0.80047,-0.95239 z m 6.38204,1.73168 c 5.2e-4,-0.003 -0.003,-0.002 -0.0135,0.004 -0.0197,0.0105 -0.0286,0.034 -0.0429,0.0512 -0.002,0.002 -0.003,0.005 -0.005,0.007 0.0305,-0.0276 0.06,-0.055 0.0615,-0.0615 z" />
    </clipPath>
  </defs>
  <sodipodi:namedview
     id="base"
     pagecolor="#ffffff"
     bordercolor="#666666"
     borderopacity="1.0"
     inkscape:pageopacity="0.0"
     inkscape:pageshadow="2"
     inkscape:zoom="0.7"
     inkscape:cx="155.67386"
     inkscape:cy="168.21146"
     inkscape:document-units="mm"
     inkscape:current-layer="layer1"
     inkscape:document-rotation="0"
     showgrid="false"
     fit-margin-top="0"
     fit-margin-left="0"
     fit-margin-right="0"
     fit-margin-bottom="0"
     inkscape:window-width="1535"
     inkscape:window-height="876"
     inkscape:window-x="65"
     inkscape:window-y="24"
     inkscape:window-maximized="1" />
  <metadata
     id="metadata5">
    <rdf:RDF>
      <cc:Work
         rdf:about="">
        <dc:format>image/svg+xml</dc:format>
        <dc:type
           rdf:resource="http://purl.org/dc/dcmitype/StillImage" />
        <dc:title></dc:title>
      </cc:Work>
    </rdf:RDF>
  </metadata>
  <g
     inkscape:label="Calque 1"
     inkscape:groupmode="layer"
     id="layer1"
     transform="translate(-96.65056,-126.78036)">
    <g
       id="g842"
       transform="translate(14.650661,19.971903)">
      <path
         style="fill:none;stroke:#ffffff;stroke-width:10;stroke-linecap:butt;stroke-linejoin:miter;stroke-miterlimit:4;stroke-dasharray:none;stroke-opacity:1"
         d="m 83,119 v 60 l 5,5 h 43 l 5,-5 v -60 l -5,-5 H 88 Z"
         id="path835"
         clip-path="url(#clipPath1219)" />
      <path
         style="fill:none;fill-opacity:0.42903;stroke:#ffffff;stroke-width:5;stroke-linecap:butt;stroke-linejoin:miter;stroke-miterlimit:4;stroke-dasharray:none;stroke-opacity:1"
         d="m 128.42049,112.43183 -17.97456,17.97456 9.17778,9.17779 17.97457,-17.97457 3.05925,3.05925 -0.15875,-15.13752 -15.13754,-0.15877 z"
         id="path837" />
    </g>
    <g
       id="g848"
       style="display:none"
       transform="translate(14.650661,19.971903)">
      <path
         style="fill:none;stroke:#ffffff;stroke-width:2;stroke-linecap:butt;stroke-linejoin:miter;stroke-miterlimit:4;stroke-dasharray:none;stroke-opacity:1"
         d="m 83,119 v 60 l 5,5 h 43 l 5,-5 v -60 l -5,-5 H 88 Z"
         id="path844"
         sodipodi:nodetypes="ccccccccc" />
      <path
         style="fill:none;fill-opacity:0.42903;stroke:#ffffff;stroke-width:2;stroke-linecap:butt;stroke-linejoin:miter;stroke-miterlimit:4;stroke-dasharray:none;stroke-opacity:1"
         d="m 132.3111,111.52952 -12.12199,12.12199 6.18947,6.18947 12.12199,-12.12199 2.06315,2.06315 -0.10706,-10.2087 -10.20871,-0.10707 z"
         id="path846"
         sodipodi:nodetypes="cccccccc" />
    </g>
  </g>
</svg>
