<?xml version="1.0" encoding="UTF-8" standalone="no"?>
<!-- Created with Inkscape (http://www.inkscape.org/) -->

<svg
   width="70mm"
   height="90mm"
   viewBox="0 0 70 90"
   version="1.1"
   id="svg5"
   inkscape:version="1.1 (ce6663b3b7, 2021-05-25)"
   sodipodi:docname="political1.svg"
   xmlns:inkscape="http://www.inkscape.org/namespaces/inkscape"
   xmlns:sodipodi="http://sodipodi.sourceforge.net/DTD/sodipodi-0.dtd"
   xmlns="http://www.w3.org/2000/svg"
   xmlns:svg="http://www.w3.org/2000/svg">
  <sodipodi:namedview
     id="namedview7"
     pagecolor="#ffffff"
     bordercolor="#666666"
     borderopacity="1.0"
     inkscape:pageshadow="2"
     inkscape:pageopacity="0.0"
     inkscape:pagecheckerboard="0"
     inkscape:document-units="mm"
     showgrid="false"
     inkscape:zoom="1.8217523"
     inkscape:cx="150.6791"
     inkscape:cy="142.99419"
     inkscape:window-width="1535"
     inkscape:window-height="876"
     inkscape:window-x="65"
     inkscape:window-y="24"
     inkscape:window-maximized="1"
     inkscape:current-layer="layer1"
     fit-margin-top="0"
     fit-margin-left="0"
     fit-margin-right="0"
     fit-margin-bottom="0" />
  <defs
     id="defs2" />
  <g
     inkscape:label="Calque 1"
     inkscape:groupmode="layer"
     id="layer1"
     transform="translate(62.930385,-120.69621)">
    <path
       style="fill:#003f66;fill-opacity:1;stroke:#69ffff;stroke-width:0.264583px;stroke-linecap:butt;stroke-linejoin:miter;stroke-opacity:1"
       d="m 9.4440256,230.92368 -0.09958,-7.55016 c -0.27452,-4.68376 -0.821637,-9.36754 -1.508862,-14.0513 -0.59963,-5.06642 -1.181407,-11.80069 -1.81485,-17.70995 -0.629383,-6.45403 -1.900092,-12.90805 -2.855252,-19.36207 -0.115834,-1.74126 -0.264585,-1.33434 -0.4015763,-1.69489 -0.3941749,-0.2277 -0.8261473,-0.51197 -1.1580331,-0.64641 l -2.9863226,-1.64704 c -2.577496,-1.30327 -5.3494802,-2.03374 -8.122101,-2.76233 l -7.1163046,-2.27645 c -1.256722,-1.55095 -1.851988,-1.6974 -3.01957,-2.70953 -0.01054,-0.98968 -0.174652,-1.85285 -0.03169,-2.96905 0.36066,-0.2869 0.543116,-0.6427 0.768862,-0.98177 l 0.676231,-2.93488 0.592128,0.45917 c 0.258764,0.0867 0.502776,0.10671 0.673716,-0.20324 0.555394,-1.77957 0.763851,-3.61948 0.944708,-5.46418 -0.09075,-0.7667 -0.04963,-1.68429 -0.401838,-2.15179 -0.210591,-0.30999 -0.666235,-0.47301 -0.501412,-1.00817 0.266566,-0.37435 0.410271,0.71377 0.997183,-3.47379 0.02742,-1.90913 -0.05331,-3.81827 -0.417655,-5.7274 -0.582156,-1.78521 -1.641903,-2.80215 -2.66777,-3.87358 -1.622546,-1.02938 -3.33816,-1.71347 -5.09908,-2.22949 -2.191312,-0.59743 -4.220543,-0.73415 -6.198529,-0.72523 -1.939493,0.20721 -3.146078,0.65724 -4.328211,1.11537 -1.108039,0.68723 -1.567076,1.0993 -2.311006,1.63215 -1.29708,1.26778 -1.997037,2.53556 -2.581765,3.80334 -0.649314,1.48267 -0.782942,3.01061 -0.792631,4.54942 -0.08302,1.64947 0.07735,3.23751 0.669798,4.77699 0.251707,0.46618 0.328008,0.91595 0.302299,1.35619 l -0.188577,2.65012 c 0.09479,1.03953 0.168167,2.07905 0.294265,3.11858 l -0.218042,2.13809 c 0.233957,0.75745 0.66739,0.67721 1.079131,0.68805 0.05264,1.59273 0.508886,2.36028 1.079892,3.12134 0.548906,0.55583 0.782095,1.12784 0.938708,1.6061 0.0063,0.50952 -0.04496,0.85498 -0.109965,1.16102 -0.666772,0.52127 -0.881822,1.04254 -1.243471,1.5638 -2.418215,0.60537 -3.263969,0.94705 -4.412295,1.33945 l -4.503746,1.56886 c -1.86724,0.55667 -5.68198,1.8688 -7.312259,2.46327 -2.869809,1.04648 -5.150655,2.71251 -4.7251,2.71251 -0.452026,0.74892 -0.428157,1.53426 -0.631261,2.24169 0.09462,1.24221 -0.203024,2.85859 -0.274605,3.74769 -0.604829,1.42539 -0.877148,1.33841 -1.301143,1.94131 l -1.526348,5.09924 c -0.454269,1.12947 -0.883098,1.76582 -1.363209,3.39619 -0.08311,1.48464 0.265272,0.63438 -0.249327,4.45392 l -2.520665,9.63959 c -0.532156,2.10813 -1.175148,4.27093 -1.595847,6.32409 -0.330799,2.37136 -0.96651,4.71937 -0.826364,7.1268 l 0.316361,9.90168 c 0.258773,2.13433 0.683418,4.26866 1.425674,6.40299 v 0"
       id="path933"
       sodipodi:nodetypes="ccccccccccccccccccccccccccccccccccccccccsccccccccccccc" />
  </g>
</svg>
