<?xml version="1.0" encoding="UTF-8" standalone="no"?>
<!-- Created with Inkscape (http://www.inkscape.org/) -->

<svg
   width="70mm"
   height="90mm"
   viewBox="0 0 70 90"
   version="1.1"
   id="svg5"
   inkscape:version="1.1 (ce6663b3b7, 2021-05-25)"
   sodipodi:docname="political2.svg"
   xmlns:inkscape="http://www.inkscape.org/namespaces/inkscape"
   xmlns:sodipodi="http://sodipodi.sourceforge.net/DTD/sodipodi-0.dtd"
   xmlns="http://www.w3.org/2000/svg"
   xmlns:svg="http://www.w3.org/2000/svg">
  <sodipodi:namedview
     id="namedview7"
     pagecolor="#ffffff"
     bordercolor="#666666"
     borderopacity="1.0"
     inkscape:pageshadow="2"
     inkscape:pageopacity="0.0"
     inkscape:pagecheckerboard="0"
     inkscape:document-units="mm"
     showgrid="false"
     inkscape:zoom="2.5763468"
     inkscape:cx="157.39341"
     inkscape:cy="211.73392"
     inkscape:window-width="1535"
     inkscape:window-height="876"
     inkscape:window-x="65"
     inkscape:window-y="24"
     inkscape:window-maximized="1"
     inkscape:current-layer="layer1"
     fit-margin-top="0"
     fit-margin-left="0"
     fit-margin-right="0"
     fit-margin-bottom="0" />
  <defs
     id="defs2" />
  <g
     inkscape:label="Calque 1"
     inkscape:groupmode="layer"
     id="layer1"
     transform="translate(62.930385,-120.69621)">
    <path
       style="fill:#003f66;fill-opacity:1;stroke:#69ffff;stroke-width:0.264583px;stroke-linecap:butt;stroke-linejoin:miter;stroke-opacity:1"
       d="m 9.8422074,210.78178 0.134711,-1.1271 0.1959436,-3.67607 c -0.136389,-0.24971 0.07579,-0.37392 -0.8935506,-0.92352 -0.3629851,-0.17096 -0.2583761,-0.0332 -0.3992041,-0.41306 0.06144,-0.5794 0.156785,-1.22711 0.07288,-1.51381 -0.208384,-1.75139 -0.583971,-3.57244 -1.152255,-5.31627 -0.331551,-1.53328 -0.378539,-2.85404 -0.668377,-4.04307 -0.216247,-0.31286 -0.472983,-0.57334 -0.474845,-0.78981 0.17889,-1.2175 0.194343,-2.29975 0.126663,-3.49672 -0.08762,-0.71975 0.216741,-1.17573 -0.410274,-2.25848 -0.374132,-0.45576 -0.640812,-0.92239 -1.489001,-1.33018 -0.33801,-0.21087 0.282183,-1.02515 0.466816,-1.53609 0.153285,-1.11956 0.28946,-2.49652 -0.290223,-3.355 -0.350214,-0.39786 -0.8245959,-0.79571 -1.3508367,-1.19356 -0.1469469,-1.17955 -0.2116142,-2.61274 -0.3385895,-3.11577 -0.090417,-0.41343 -0.6759788,-0.96644 -0.8441473,-1.63985 -0.1242608,-0.41877 0.035688,-0.8815 0.2426778,-1.3562 l 0.1835586,-0.55491 c 0.00843,-0.59277 -0.3246011,-0.97787 -0.5176217,-1.42081 -0.1549287,-1.09431 -0.4176186,-2.2076 -1.0433635,-3.26209 -0.2544474,-0.50924 -0.57205259,-0.58949 -0.72228389,-0.56031 -0.1858595,0.1573 -0.1887797,0.12623 -0.3204231,0.10104 l -3.82611831,-1.55089 -8.5679487,-3.02161 c -1.628824,-0.66936 -3.252644,-1.12174 -4.886475,-2.00825 -0.618332,-0.5173 -1.392651,-1.66004 -1.892303,-2.31751 0.08964,-0.77142 0.280272,-1.52387 0.234661,-2.32069 0.38233,-0.39615 0.765592,-0.70611 1.14409,-1.45722 0.617766,-1.40639 0.278793,-1.51396 0.560139,-2.30669 0.426147,-0.13416 0.56493,-0.5101 0.744635,-0.85161 0.237333,-0.64225 0.314101,-1.2515 0.392639,-1.88108 l 0.82363,-4.30611 c 0.006,-0.0734 -0.0173,-0.13704 -0.04367,-0.19885 -0.09018,-0.1221 -0.203546,-0.1355 -0.309861,-0.18196 0.755653,-1.53203 1.265828,-4.26545 1.15797,-6.1506 -0.146433,-0.95286 -0.270469,-1.92334 -0.71069,-2.64539 -0.577619,-1.26404 -1.448941,-2.02134 -2.220282,-2.95115 -0.311237,-0.21842 -0.386498,-0.43685 -0.954288,-0.65526 0.109311,-0.17436 -0.08202,-0.34872 -0.257561,-0.52308 -0.139176,-0.0434 -0.197137,-0.11342 -0.499482,-0.10329 -0.103871,-0.0595 -0.256262,0.17787 -0.281753,-0.36088 -0.203399,-0.1996 -0.304991,-0.18382 -0.416441,-0.1889 -0.466814,0.10184 -0.159327,-0.4133 -1.294306,-0.4129 -0.168614,-0.43676 -0.664394,-0.55565 -1.033322,-0.69748 -1.339975,0.13637 -1.170365,-0.0933 -1.404142,-0.22507 -0.735751,-0.26245 -1.233361,-0.29427 -1.654375,-0.25192 -0.445248,0.0691 -0.966662,0.0873 -1.602237,0.0293 -0.243768,0.0465 -0.415024,0.2106 -0.802456,0.0244 -0.74899,0.16965 -1.573929,0.58786 -2.208343,0.38255 -0.335598,0.27894 -0.672804,0.56969 -0.969089,0.56067 -0.896438,0.41955 -1.24756,0.72663 -1.392132,0.99112 -0.498924,0.41908 -0.725873,0.72219 -0.751906,0.93963 -0.543584,0.66474 -0.912127,1.21049 -1.129826,1.7728 -0.424187,0.5392 -0.915387,1.01927 -1.0806,1.78695 -0.680972,1.20074 -0.932514,2.40149 -1.211335,3.60225 -0.09614,0.48111 -0.144047,0.97055 -0.02637,1.48858 0.158969,0.67322 -0.204509,1.44274 0.07135,1.82113 l 0.0065,2.72846 -0.06296,1.38713 -0.0489,1.7164 c 0.06584,1.23391 0.33153,1.30022 0.625126,1.20346 0.271608,-0.0548 0.412926,0.1033 0.431683,0.46204 l 0.03631,1.43478 c 0.03744,0.4326 0.01269,0.86519 0.204156,1.29778 0.258012,0.69955 0.567969,1.45219 0.828272,1.55013 -0.143834,0.63867 -0.220617,1.27735 -0.236199,1.91601 -0.227387,-0.10723 -0.403678,0.03 -0.566698,0.23087 -1.310448,1.76915 -3.405369,3.80927 -3.737752,3.94601 l -2.472827,0.69654 -3.102584,0.57555 c -1.242654,0.44952 -2.336636,0.80452 -3.249129,1.04413 l -2.257494,0.53031 -3.313441,0.88283 -3.178142,0.87735 -1.30498,0.39907 c -0.09543,-0.0495 -0.145752,-0.1106 -0.468639,-0.17511 -0.304712,0.10364 -0.370568,0.19992 -0.478958,0.29754 -0.513409,0.65256 -0.563248,1.30513 -0.844861,1.95768 -0.321897,1.04517 -0.345109,2.09032 -0.287828,3.13549 l -0.05463,0.59086 c -0.214688,0.63655 -0.443753,1.46333 -0.636366,1.80774 -0.171346,0.63983 -0.0045,1.27967 -0.0034,1.9195 -0.181372,0.4032 -0.573623,0.68615 -0.861024,1.02891 -0.397331,0.55761 -0.605321,1.52706 -0.902119,2.30335 l -0.194287,0.82885 c 0.04328,0.63444 0.227356,0.95322 0.391621,1.31638 -0.01124,0.36961 -0.132197,0.60632 -0.20038,0.90694 0.0034,0.32173 -0.373333,0.1572 -0.863216,-0.15263 -0.417451,0.0865 -0.366859,0.2774 -0.485376,0.43057 -0.09228,0.47568 0.05676,0.95135 0.117191,1.42704 -0.265,0.90609 -0.487073,0.9729 -0.730211,1.4515 -0.306768,0.96834 -0.08082,1.0098 -0.11981,1.51233 -0.107007,0.44055 -0.210259,0.89692 -0.365903,1.13305 -0.410977,0.5266 -0.373996,0.80565 -0.56073,1.20833 -0.09487,1.05054 -0.464672,1.8293 -0.714654,2.72651 l -1.139884,4.10616 -0.516545,1.5338 c -1.088481,2.94535 -0.557324,2.90126 -1.079703,4.27189 l -0.554818,1.45549 c -0.124766,0.89215 -0.26745,1.7843 -0.142773,2.67645 l 0.168603,1.99319 0.254648,2.60537 14.460403,0.2566 0.288335,-1.46685 -0.102736,-1.43517 -0.326967,-0.34057 c 0.180721,-0.63026 0.818559,-1.17123 1.246969,-1.75311 0.480419,-0.8589 0.655036,-1.85329 0.921014,-2.80721 l 0.894419,-2.66905 1.096957,5.70009 0.49158,4.51521 45.3254749,-0.0526 c -0.00719,0.0468 -0.6257269,-0.66008 -0.8233167,-1.11295 -0.1779262,-0.4078 -0.5651814,-3.88963 -0.5551552,-3.88963 l 0.2192183,-0.47865 c -0.012173,0.43408 -0.069903,0.86815 0.1392508,1.30224 0.2366316,0.42455 0.3542809,0.93822 0.8583098,1.191 0.3797468,0.20594 1.0129407,0.37357 2.086138,0.59092 0.5466879,0.21934 0.1795178,1.29714 0.323757,1.89705 l 0.1566427,0.70021 z"
       id="path6613"
       sodipodi:nodetypes="cccccccccccccccccccccccccccccccccccccccccccccccccccccccccccccccccccccccccccccccccccccccccccccccccccccccccccccccccscccccccc" />
  </g>
</svg>
