<?xml version="1.0" encoding="UTF-8" standalone="no"?>
<svg
   width="100mm"
   height="100mm"
   viewBox="0 0 100 100"
   version="1.1"
   id="svg8"
   inkscape:version="1.1 (ce6663b3b7, 2021-05-25)"
   sodipodi:docname="development.svg"
   xmlns:inkscape="http://www.inkscape.org/namespaces/inkscape"
   xmlns:sodipodi="http://sodipodi.sourceforge.net/DTD/sodipodi-0.dtd"
   xmlns="http://www.w3.org/2000/svg"
   xmlns:svg="http://www.w3.org/2000/svg"
   xmlns:rdf="http://www.w3.org/1999/02/22-rdf-syntax-ns#"
   xmlns:cc="http://creativecommons.org/ns#"
   xmlns:dc="http://purl.org/dc/elements/1.1/">
  <defs
     id="defs2" />
  <sodipodi:namedview
     id="base"
     pagecolor="#ffffff"
     bordercolor="#666666"
     borderopacity="1.0"
     inkscape:pageopacity="0.0"
     inkscape:pageshadow="2"
     inkscape:zoom="0.7821573"
     inkscape:cx="108.03453"
     inkscape:cy="177.07436"
     inkscape:document-units="mm"
     inkscape:current-layer="layer1"
     inkscape:document-rotation="0"
     showgrid="false"
     inkscape:window-width="1535"
     inkscape:window-height="876"
     inkscape:window-x="65"
     inkscape:window-y="24"
     inkscape:window-maximized="1"
     inkscape:pagecheckerboard="0" />
  <metadata
     id="metadata5">
    <rdf:RDF>
      <cc:Work
         rdf:about="">
        <dc:format>image/svg+xml</dc:format>
        <dc:type
           rdf:resource="http://purl.org/dc/dcmitype/StillImage" />
      </cc:Work>
    </rdf:RDF>
  </metadata>
  <g
     inkscape:label="Calque 1"
     inkscape:groupmode="layer"
     id="layer1">
    <g
       id="g4093"
       transform="matrix(0.91451192,0,0,0.91461852,20.460767,16.294947)"
       style="stroke-width:1.09342">
      <path
         style="display:inline;fill:none;stroke:#69ffff;stroke-width:1.16449;stroke-linecap:butt;stroke-linejoin:miter;stroke-miterlimit:4;stroke-dasharray:none;stroke-opacity:1"
         d="m -14.795995,93.062524 0.172749,-6.690951 1.133196,-1.692172 0.712288,-26.545407 -0.788918,-1.033898 1.017917,-0.185635 0.238336,-4.74066 -2.792036,-2.013517 -0.07462,-1.344191 4.000752,0.0066 0.153091,-6.32905 13.0265565,0.195746 0.1710673,-3.818232 6.3333367,-0.01577 -0.038375,-1.189655 0.7064575,-0.01045 0.40769,-14.613106 C 8.6856147,22.634371 7.8041185,22.148829 7.2336895,20.187402 7.4532584,19.234338 7.5433846,18.339606 10.594341,16.110574 10.680485,7.8204563 16.372581,1.7665826 27.986822,-1.9249166 l 0.180389,-3.11748 0.36656,-3.3055123 c -1.098496,-1.3221786 -0.150862,-2.0942151 0.496951,-3.0185961 1.023817,-4.08114 6.790221,-3.323899 7.471816,0.215391 1.002982,1.006533 1.500887,1.8316645 0.38987,3.0655957 l 0.118514,3.2258813 0.0613,3.1008207 c 8.8453,2.48332515 18.112433,9.3078118 18.346767,18.0287143 1.798588,1.378397 2.680073,2.100027 3.015084,4.20283 -0.429658,1.26739 -0.866697,1.947414 -1.783608,2.737385 l -0.105367,15.524063 5.231149,0.11197 0.106588,3.93914 14.133961,0.0054 0.06321,5.667595 4.720528,-0.144506 0.0027,1.347181 -2.726428,2.10453 -0.02284,4.297263 1.2613,0.05718 -1.231582,1.526586 0.808247,27.063477 1.054009,1.593167 0.0205,6.645933 -5.632086,1.053343 -82.9914766,-0.0564 z"
         id="path912"
         sodipodi:nodetypes="ccccccccccccccccccccccccccccccccccccccccccccccc" />
      <path
         style="display:inline;fill:none;stroke:#69ffff;stroke-width:1.16449;stroke-linecap:butt;stroke-linejoin:miter;stroke-miterlimit:4;stroke-dasharray:none;stroke-opacity:1"
         d="m 27.986823,-1.9249166 c 3.088885,-0.458655 6.112301,-0.3603275 9.085397,0.1661003"
         id="path858"
         sodipodi:nodetypes="cc" />
      <path
         style="display:inline;fill:none;stroke:#69ffff;stroke-width:1.16449;stroke-linecap:butt;stroke-linejoin:miter;stroke-miterlimit:4;stroke-dasharray:none;stroke-opacity:1"
         d="M 10.594341,16.110574 C 24.82052,10.670037 39.643393,9.8117761 55.418989,16.269898 v 0 0"
         id="path950"
         sodipodi:nodetypes="cccc" />
      <path
         style="display:inline;fill:none;stroke:#69ffff;stroke-width:1.16449;stroke-linecap:butt;stroke-linejoin:miter;stroke-miterlimit:4;stroke-dasharray:none;stroke-opacity:1"
         d="M 9.5834929,23.042176 C 24.361911,16.697629 40.182795,17.680706 56.650463,23.210113 v 0"
         id="path1080"
         sodipodi:nodetypes="ccc" />
      <path
         style="display:inline;fill:none;stroke:#69ffff;stroke-width:1.16449;stroke-linecap:butt;stroke-linejoin:miter;stroke-miterlimit:4;stroke-dasharray:none;stroke-opacity:1"
         d="M -2.6680479,45.421518 2.8970986,45.467388 32.374953,33.92572 60.1229,44.942865 l 6.647024,0.128929 -4.005407,4.00495 0.0038,4.441134 -61.4485664,0.08084 0.045071,-3.84931 z"
         id="path1210"
         sodipodi:nodetypes="cccccccccc" />
      <path
         style="display:inline;fill:none;stroke:#69ffff;stroke-width:1.16449;stroke-linecap:butt;stroke-linejoin:miter;stroke-miterlimit:4;stroke-dasharray:none;stroke-opacity:1"
         d="m 1.3197736,53.598717 -1.09386604,35.495743 3.70357694,0.003 1.0663692,-35.499256 -3.6760801,5.29e-4 v 0 0 0"
         id="path1986" />
      <path
         style="display:inline;fill:none;stroke:#69ffff;stroke-width:1.16449;stroke-linecap:butt;stroke-linejoin:miter;stroke-miterlimit:4;stroke-dasharray:none;stroke-opacity:1"
         d="m 21.112523,53.628353 -0.683596,35.434641 3.715297,0.02129 0.36929,-35.512512 z"
         id="path2040"
         sodipodi:nodetypes="ccccc" />
      <path
         style="display:inline;fill:none;stroke:#69ffff;stroke-width:1.16449;stroke-linecap:butt;stroke-linejoin:miter;stroke-miterlimit:4;stroke-dasharray:none;stroke-opacity:1"
         d="m 39.827149,53.573767 -0.04983,35.556187 4.019713,0.0046 -0.398504,-35.552478 z"
         id="path2042"
         sodipodi:nodetypes="ccccc" />
      <path
         style="display:inline;fill:none;stroke:#69ffff;stroke-width:1.16449;stroke-linecap:butt;stroke-linejoin:miter;stroke-miterlimit:4;stroke-dasharray:none;stroke-opacity:1"
         d="m 59.113578,53.483151 1.155258,35.454977 3.650052,0.03155 -1.150573,-35.451804 z"
         id="path2134"
         sodipodi:nodetypes="ccccc" />
      <path
         style="display:inline;fill:none;stroke:#69ffff;stroke-width:1.16449;stroke-linecap:butt;stroke-linejoin:miter;stroke-miterlimit:4;stroke-dasharray:none;stroke-opacity:1"
         d="M -14.795995,93.062522 0.22590756,89.09446 63.918888,88.969677 79.966438,92.94909"
         id="path2853" />
    </g>
    <path
       style="fill:none;stroke:#69ffff;stroke-width:1.065;stroke-linecap:butt;stroke-linejoin:miter;stroke-opacity:1;stroke-miterlimit:4;stroke-dasharray:none"
       d="m 46.555241,8.6597949 c 2.227571,-1.443428 4.672819,-1.8520237 7.644072,0.2399872 v 0 0"
       id="path4225"
       sodipodi:nodetypes="cccc" />
    <path
       style="fill:none;stroke:#69ffff;stroke-width:1.065;stroke-linecap:butt;stroke-linejoin:miter;stroke-miterlimit:4;stroke-dasharray:none;stroke-opacity:1"
       d="m 46.665842,6.4625872 c 2.227571,-1.443428 4.672819,-1.8520237 7.644072,0.2399872 v 0 0"
       id="path4474"
       sodipodi:nodetypes="cccc" />
  </g>
</svg>
