<?xml version="1.0" encoding="UTF-8" standalone="no"?>
<svg
   xmlns:dc="http://purl.org/dc/elements/1.1/"
   xmlns:cc="http://creativecommons.org/ns#"
   xmlns:rdf="http://www.w3.org/1999/02/22-rdf-syntax-ns#"
   xmlns:svg="http://www.w3.org/2000/svg"
   xmlns="http://www.w3.org/2000/svg"
   xmlns:sodipodi="http://sodipodi.sourceforge.net/DTD/sodipodi-0.dtd"
   xmlns:inkscape="http://www.inkscape.org/namespaces/inkscape"
   width="100mm"
   height="100mm"
   viewBox="0 0 100 100"
   version="1.1"
   id="svg1531"
   inkscape:version="1.0.2 (394de47547, 2021-03-26)"
   sodipodi:docname="wormhole.svg">
  <defs
     id="defs1525" />
  <sodipodi:namedview
     id="base"
     pagecolor="#ffffff"
     bordercolor="#666666"
     borderopacity="1.0"
     inkscape:pageopacity="0.0"
     inkscape:pageshadow="2"
     inkscape:zoom="0.98994949"
     inkscape:cx="218.70719"
     inkscape:cy="280.13527"
     inkscape:document-units="mm"
     inkscape:current-layer="layer1"
     inkscape:document-rotation="0"
     showgrid="false"
     inkscape:window-width="1535"
     inkscape:window-height="876"
     inkscape:window-x="65"
     inkscape:window-y="24"
     inkscape:window-maximized="1" />
  <metadata
     id="metadata1528">
    <rdf:RDF>
      <cc:Work
         rdf:about="">
        <dc:format>image/svg+xml</dc:format>
        <dc:type
           rdf:resource="http://purl.org/dc/dcmitype/StillImage" />
        <dc:title></dc:title>
      </cc:Work>
    </rdf:RDF>
  </metadata>
  <g
     inkscape:label="Calque 1"
     inkscape:groupmode="layer"
     id="layer1">
    <g
       id="g2192"
       style="stroke:#69ffff;stroke-width:2;stroke-miterlimit:4;stroke-dasharray:none;stroke-opacity:1">
      <path
         style="fill:none;stroke:#69ffff;stroke-width:2;stroke-linecap:butt;stroke-linejoin:miter;stroke-miterlimit:4;stroke-dasharray:none;stroke-opacity:1"
         d="m -54.269702,66.838686 c 18.57111,-3.793987 38.000298,-5.479519 57.7202913,-6.450491 16.2279567,-0.760551 25.0709767,-0.130407 33.8068137,0.519922 8.693495,0.758905 17.565416,1.169414 21.11293,1.194512 3.714773,-0.281671 7.462654,-0.446762 10.932305,-1.591577"
         id="path2142"
         sodipodi:nodetypes="ccccc" />
      <path
         style="fill:none;stroke:#69ffff;stroke-width:2;stroke-linecap:butt;stroke-linejoin:miter;stroke-miterlimit:4;stroke-dasharray:none;stroke-opacity:1"
         d="M 12.288164,-0.85264383 C 17.050468,7.8971633 22.467023,16.590813 28.252687,25.252779 c 3.696903,5.388473 8.306113,10.554275 13.051896,15.686743 4.062076,3.796059 7.543628,6.250095 10.716485,7.990506 3.359352,1.715954 6.832786,3.271795 10.909689,3.980676 1.994961,0.315101 3.945841,0.601657 5.343208,0.529763"
         id="path2144"
         sodipodi:nodetypes="cccccc" />
      <path
         style="fill:none;stroke:#69ffff;stroke-width:2;stroke-linecap:butt;stroke-linejoin:miter;stroke-miterlimit:4;stroke-dasharray:none;stroke-opacity:1"
         d="M 52.747762,-0.51121142 C 51.725324,6.8679796 51.333934,14.340773 51.146713,21.84385 c -0.046,4.145647 0.428695,8.196327 1.446301,12.020328 0.903581,3.680932 2.261766,6.813469 3.97699,9.515304 1.256582,1.866457 2.661537,3.329282 4.092249,4.722036 0.909553,0.740863 1.39425,1.163787 3.034568,2.035853 0.865727,0.388982 2.030377,0.665276 2.933851,1.17836"
         id="path2146"
         sodipodi:nodetypes="ccccccc" />
      <path
         style="fill:none;stroke:#69ffff;stroke-width:2;stroke-linecap:butt;stroke-linejoin:miter;stroke-miterlimit:4;stroke-dasharray:none;stroke-opacity:1"
         d="M 106.2941,-2.8748664 C 95.764513,6.3268009 84.647334,14.975571 75.541015,25.516471 72.265758,29.276916 69.66412,33.03736 67.475718,36.797805 66.173307,39.45952 65.1903,42.122816 64.962091,44.82643 c -0.03806,1.275123 0.121729,2.601897 0.477352,3.715383 0.402994,1.306655 0.910041,2.017675 1.576281,2.700519"
         id="path2148"
         sodipodi:nodetypes="cccccc" />
      <path
         style="fill:none;stroke:#69ffff;stroke-width:2;stroke-linecap:butt;stroke-linejoin:miter;stroke-miterlimit:4;stroke-dasharray:none;stroke-opacity:1"
         d="m 69.445303,58.053133 c 1.653944,-1.542048 4.82467,-2.149802 8.694756,-2.326769 16.208768,-0.360848 33.011661,-0.554324 47.938111,-1.276414"
         id="path2150"
         sodipodi:nodetypes="ccc" />
      <path
         style="fill:none;stroke:#69ffff;stroke-width:2;stroke-linecap:butt;stroke-linejoin:miter;stroke-miterlimit:4;stroke-dasharray:none;stroke-opacity:1"
         d="m 66.390593,68.777966 c 0.444192,0.866465 1.105757,1.699145 1.919978,2.508098 2.567148,2.269681 5.351998,4.395216 8.089786,6.551912 12.590985,8.997156 24.836913,17.392763 37.255363,26.089144"
         id="path2152"
         sodipodi:nodetypes="cccc" />
      <path
         style="fill:none;stroke:#69ffff;stroke-width:2;stroke-linecap:butt;stroke-linejoin:miter;stroke-miterlimit:4;stroke-dasharray:none;stroke-opacity:1"
         d="m 63.578959,71.59754 c -0.602653,0.279166 -1.478979,0.88946 -2.234732,1.489722 -0.857246,1.013219 -0.807464,1.176034 -1.026009,1.590425 -0.251973,0.618694 -0.289891,0.957247 -0.398267,1.38801 -0.09602,0.901193 -0.06763,1.730884 0.01117,2.531607 0.45712,4.047996 2.266496,7.960592 3.785018,11.720639 2.160614,4.59296 4.435691,8.864418 6.705883,13.149597"
         id="path2154"
         sodipodi:nodetypes="ccccccc" />
      <path
         style="fill:none;stroke:#69ffff;stroke-width:2;stroke-linecap:butt;stroke-linejoin:miter;stroke-miterlimit:4;stroke-dasharray:none;stroke-opacity:1"
         d="m 64.078167,71.064431 c -1.315869,0.381612 -2.555784,0.879492 -3.758203,1.434772 -0.974466,0.439431 -1.900305,0.910961 -2.73549,1.442334 -1.586023,1.008471 -2.585211,1.997456 -3.246083,2.975208 -1.816074,2.89504 -2.167604,4.614885 -2.611535,6.408875 -0.900962,6.486059 -0.278172,12.631296 0.12686,18.82524"
         id="path2156"
         sodipodi:nodetypes="cccccc" />
      <path
         style="fill:none;stroke:#69ffff;stroke-width:2;stroke-linecap:butt;stroke-linejoin:miter;stroke-miterlimit:4;stroke-dasharray:none;stroke-opacity:1"
         d="m 67.329703,66.829563 -8.09951,1.650559 -5.434367,1.014878 c -4.183448,0.876362 -8.386862,1.717669 -12.371586,2.942931 -2.435896,0.759101 -4.560234,1.768617 -6.712688,2.755535 -3.084158,1.732614 -6.026133,3.560041 -8.728996,5.546917 C 17.389349,86.979998 9.6766065,95.396046 2.8311821,103.40001"
         id="path2158"
         sodipodi:nodetypes="ccccccc" />
      <circle
         style="fill:none;fill-rule:evenodd;stroke:#69ffff;stroke-width:2;stroke-miterlimit:4;stroke-dasharray:none;stroke-opacity:1"
         id="path2160"
         cx="44.989136"
         cy="55.016392"
         r="30.004278" />
      <path
         style="display:inline;fill:none;stroke:#69ffff;stroke-width:2;stroke-linecap:butt;stroke-linejoin:miter;stroke-miterlimit:4;stroke-dasharray:none;stroke-opacity:1"
         d="m 65.705918,50.356978 c -0.824435,-0.864287 -2.233113,-1.737164 -3.716438,-2.611138 -1.568068,-0.932993 -3.254632,-1.618942 -4.882965,-1.897581 -2.153189,-0.483803 -4.889467,-0.352469 -6.561116,0.136842 -1.947152,0.566747 -3.431924,1.42976 -4.883894,2.392756 -2.329901,1.644053 -3.617931,3.596055 -4.357549,4.929454 -1.268602,2.453789 -1.412561,3.7658 -1.547581,5.15331 -0.293083,2.521205 -0.02706,3.519765 0.312182,5.208116 0.532101,1.956062 1.388971,3.815222 2.479631,5.232933 1.927783,2.362538 3.183751,3.037362 4.436975,3.873442 1.877582,1.132765 4.023841,1.824465 6.150142,2.037896 2.910893,0.141427 4.258658,-0.223229 5.051013,-0.362844 1.239029,-0.295567 2.153072,-0.867897 3.15791,-1.362903"
         id="path2162"
         sodipodi:nodetypes="ccccccccccccc" />
      <path
         style="fill:none;stroke:#69ffff;stroke-width:2;stroke-linecap:butt;stroke-linejoin:miter;stroke-miterlimit:4;stroke-dasharray:none;stroke-opacity:1"
         d="m 67.015724,51.242332 c -1.061352,-0.37408 -2.191742,-0.721058 -3.808101,-0.877256 -1.024695,-0.07962 -2.025468,0.07187 -3.018873,0.294536 -1.010745,0.270449 -1.901585,0.656982 -2.72806,1.105829 -1.255326,0.803214 -1.732738,1.42386 -2.281119,2.061162 -0.764543,0.948426 -1.518685,1.949067 -2.118084,3.726558 -0.26115,0.871745 -0.366941,1.755226 -0.394509,2.644616 0.03978,1.157777 0.166997,2.321804 0.608554,3.508299 0.455638,1.069779 0.941889,2.10698 1.641722,2.916897 0.671496,0.751065 1.389302,1.418363 2.155082,1.998887 0.662284,0.438192 1.408707,0.830945 2.257581,1.168369 0.901186,0.284705 1.769314,0.468469 2.835097,0.645098 0.965896,0.03695 1.919374,-0.01675 2.854788,-0.202333"
         id="path2168"
         sodipodi:nodetypes="ccccccccccccc" />
      <path
         style="fill:none;stroke:#69ffff;stroke-width:2;stroke-linecap:butt;stroke-linejoin:miter;stroke-miterlimit:4;stroke-dasharray:none;stroke-opacity:1"
         d="m 68.350718,53.625283 c -0.579214,0.373845 -0.962348,0.506876 -2.236596,1.734318 -0.531674,0.547962 -0.932663,1.134943 -1.214136,1.738265 -0.443551,0.879294 -0.728513,1.783353 -0.73136,2.730687 -0.05924,0.789905 -0.04059,1.531502 0.114721,2.319261 0.185728,0.945215 0.561257,1.830306 1.11446,2.662648 0.556608,0.727814 1.244274,1.373443 1.931895,2.019101"
         id="path2172"
         sodipodi:nodetypes="ccccccc" />
      <path
         style="fill:none;stroke:#69ffff;stroke-width:2;stroke-linecap:butt;stroke-linejoin:miter;stroke-miterlimit:4;stroke-dasharray:none;stroke-opacity:1"
         d="m 61.344227,73.087261 c 0.608057,-0.269766 1.175936,-0.599507 1.685202,-1.01674 0.957028,-0.811205 1.876122,-1.63552 2.605463,-2.525416 0.801735,-1.024658 1.589952,-2.058368 2.095277,-3.281544 0.639809,-1.339119 1.015663,-2.72295 1.294314,-4.123246 0.241246,-1.09815 0.37838,-2.12359 0.326691,-3.017157 0.01999,-1.08639 -0.0617,-2.199758 -0.322541,-3.360663 -0.307068,-1.056489 -0.597809,-2.124209 -1.075207,-3.063526 -0.544934,-1.133395 -0.708728,-1.204152 -0.937702,-1.456637"
         id="path2176"
         sodipodi:nodetypes="ccccccccc" />
    </g>
  </g>
</svg>
