<?xml version="1.0" encoding="UTF-8" standalone="no"?>
<svg
   xmlns:dc="http://purl.org/dc/elements/1.1/"
   xmlns:cc="http://creativecommons.org/ns#"
   xmlns:rdf="http://www.w3.org/1999/02/22-rdf-syntax-ns#"
   xmlns:svg="http://www.w3.org/2000/svg"
   xmlns="http://www.w3.org/2000/svg"
   xmlns:sodipodi="http://sodipodi.sourceforge.net/DTD/sodipodi-0.dtd"
   xmlns:inkscape="http://www.inkscape.org/namespaces/inkscape"
   width="100mm"
   height="100mm"
   viewBox="0 0 100 100"
   version="1.1"
   id="svg845"
   inkscape:version="1.0.2 (394de47547, 2021-03-26)"
   sodipodi:docname="geothermie.svg">
  <defs
     id="defs839" />
  <sodipodi:namedview
     id="base"
     pagecolor="#ffffff"
     bordercolor="#666666"
     borderopacity="1.0"
     inkscape:pageopacity="0.0"
     inkscape:pageshadow="2"
     inkscape:zoom="1.4"
     inkscape:cx="146.20741"
     inkscape:cy="248.73237"
     inkscape:document-units="mm"
     inkscape:current-layer="layer1"
     inkscape:document-rotation="0"
     showgrid="false"
     inkscape:window-width="1535"
     inkscape:window-height="876"
     inkscape:window-x="65"
     inkscape:window-y="24"
     inkscape:window-maximized="1" />
  <metadata
     id="metadata842">
    <rdf:RDF>
      <cc:Work
         rdf:about="">
        <dc:format>image/svg+xml</dc:format>
        <dc:type
           rdf:resource="http://purl.org/dc/dcmitype/StillImage" />
        <dc:title />
      </cc:Work>
    </rdf:RDF>
  </metadata>
  <g
     inkscape:label="Calque 1"
     inkscape:groupmode="layer"
     id="layer1">
    <ellipse
       style="display:inline;fill:none;fill-rule:evenodd;stroke:#69ffff;stroke-width:1.065;stroke-miterlimit:4;stroke-dasharray:none;stroke-opacity:1"
       id="path1410"
       cx="48.346298"
       cy="177.65381"
       rx="247.28764"
       ry="124.11548" />
    <path
       style="display:none;fill:none;stroke:#69ffff;stroke-width:1.165;stroke-linecap:butt;stroke-linejoin:miter;stroke-miterlimit:4;stroke-dasharray:none;stroke-opacity:1"
       d="m 29.793065,53.927996 3.699126,-37.821044 h 5.77261 l 2.932905,22.00198 v -8.264113 l 13.480623,7.780078 v -7.476759 l 13.793931,7.960901 v 15.891608"
       id="path1414"
       sodipodi:nodetypes="ccccccccc" />
    <path
       id="path1418"
       style="fill:none;stroke:#69ffff;stroke-width:2.065;stroke-linecap:butt;stroke-linejoin:miter;stroke-miterlimit:4;stroke-dasharray:none;stroke-opacity:1"
       d="m 22.830701,55.354335 c 0.05485,12.215638 -0.145281,24.434023 0.06178,36.647913 0.281916,1.712431 3.318836,3.691395 6.808583,2.972601 3.903418,-0.913828 4.12815,-3.494355 3.949444,-5.461122 0.09653,-6.675728 -0.278876,-13.358577 0.151378,-20.030199 0.461036,-1.651709 2.313336,-3.811572 5.99241,-3.678596 3.710611,0.369834 4.71421,2.719815 4.676278,4.452625 0.04223,7.152405 -0.21092,14.308909 0.111017,21.459024 0.417936,1.845156 3.593854,4.04634 7.43553,3.293651 3.396113,-1.071685 3.327534,-3.485051 3.276748,-5.346555 0.147929,-6.751348 -0.1626,-13.508786 0.132232,-20.256662 0.554734,-1.550636 2.252028,-3.445653 5.540095,-3.612814 3.955417,0.229257 5.29106,2.729394 5.180535,4.559819 -0.04084,7.373557 -0.261987,14.754394 0.113012,22.124752 0.40774,2.146461 6.163194,3.77219 8.801586,1.706861 2.810095,-2.017644 1.663846,-4.685789 1.990184,-7.0232 0.26882,-10.703284 0.154808,-21.408339 -0.132381,-32.11115" />
    <path
       style="fill:none;stroke:#69ffff;stroke-width:2.065;stroke-linecap:butt;stroke-linejoin:miter;stroke-miterlimit:4;stroke-dasharray:none;stroke-opacity:1"
       d="M 17.801956,54.484527 V 5.0325 h 11.527108 v 32.126711 h 2.86898 V 22.73046 l 25,14.992203 V 24.253102 l 25,15.571249 v 14.843974"
       id="path833"
       sodipodi:nodetypes="cccccccccc" />
  </g>
</svg>
