<?xml version="1.0" encoding="UTF-8" standalone="no"?>
<svg
   xmlns:dc="http://purl.org/dc/elements/1.1/"
   xmlns:cc="http://creativecommons.org/ns#"
   xmlns:rdf="http://www.w3.org/1999/02/22-rdf-syntax-ns#"
   xmlns:svg="http://www.w3.org/2000/svg"
   xmlns="http://www.w3.org/2000/svg"
   xmlns:sodipodi="http://sodipodi.sourceforge.net/DTD/sodipodi-0.dtd"
   xmlns:inkscape="http://www.inkscape.org/namespaces/inkscape"
   width="100mm"
   height="100mm"
   viewBox="0 0 100 100"
   version="1.1"
   id="svg935"
   inkscape:version="1.0.2 (394de47547, 2021-03-26)"
   sodipodi:docname="lock-icon.svg">
  <defs
     id="defs929">
    <clipPath
       clipPathUnits="userSpaceOnUse"
       id="clipPath983">
      <path
         id="path985"
         style="fill:#ff0000;fill-opacity:1;fill-rule:nonzero;stroke:none;stroke-width:0.264583"
         d="M 24.302392,31.223934 V 91.11692 H 75.697188 V 31.223934 Z M 45.6799,64.464282 c 0.0822,-0.01447 0.184242,0.0513 0.223758,0.211873 0.06172,0.250791 0.03114,0.507301 0.02326,0.761196 0.0019,0.122809 0.0087,0.242496 -0.01551,0.363802 -0.02969,0.149098 -0.02029,0.0041 -0.02376,0.145727 0.0011,0.159356 0.0094,0.318635 0.01085,0.478007 2.65e-4,0.03685 0.0028,0.07385 0,0.110588 -0.0037,0.04794 -0.01315,0.09498 -0.01963,0.142626 -0.0416,0.155935 -0.07528,0.313777 -0.11472,0.470254 -0.02162,0.06858 -0.0071,0.141732 -0.0031,0.212392 0.0011,0.01823 -0.0021,0.03733 0.0031,0.05478 0.0032,0.01045 0.01408,0.01651 0.02119,0.02479 0.0071,0.01042 0.01228,0.02252 0.02119,0.03152 0.01148,0.01167 0.02553,0.02027 0.03876,0.02997 0.07006,0.05116 0.05362,0.01765 0.118337,0.158131 0.01,0.02172 0.02439,0.11073 0.03049,0.146759 0.01736,0.04742 -0.0021,0.100015 0.0041,0.147796 7.94e-4,0.006 0.0082,0.0091 0.01085,0.01447 0.0043,0.0084 0.0083,0.01714 0.01035,0.02635 0.007,0.03198 0.01103,0.06436 0.01654,0.09664 0.01461,0.04905 -0.01265,0.132474 -0.0067,0.178284 5.29e-4,0.0036 0.0083,5.29e-4 0.01085,0.0031 0.0043,0.0042 0.0062,0.0099 0.0083,0.01551 0.01082,0.02894 0.01998,0.05862 0.02997,0.08785 0.04608,0.125592 0.07586,0.236849 0.04909,0.371035 -0.03339,0.101682 1.54e-4,-0.004 -5.29e-4,-0.03462 -0.0071,-0.33065 -0.30766,0.3785 -0.330729,0.04858 -7.94e-4,-0.01299 -0.0041,-0.02635 -0.0026,-0.03927 0.0024,-0.01889 0.0083,-0.04355 0.01241,-0.05943 0.0032,-0.0073 0.0071,-0.01508 0.0067,-0.01757 -0.0074,-0.05536 -0.04074,-0.107196 -0.05064,-0.162266 -0.0145,-0.04379 -0.03576,-0.08536 -0.04651,-0.130223 -0.019,-0.07943 -0.01884,-0.139491 -0.01085,-0.217043 -5.29e-4,-0.06604 0.003,0.01431 -0.02119,-0.09095 -0.02064,-0.08974 -0.01381,-0.108818 -0.0186,-0.182417 -0.003,-0.01752 -0.0081,-0.03497 -0.0093,-0.05271 -5.3e-4,-0.0098 0.03049,-0.0094 0.02429,-0.01707 -0.01733,-0.02151 -0.04589,-0.03134 -0.06615,-0.05012 -0.09594,-0.08895 -0.08084,-0.07637 -0.136427,-0.171567 -0.01572,-0.04544 -0.03477,-0.08993 -0.04702,-0.136427 -0.0046,-0.01765 -0.0021,-0.03654 -0.0031,-0.05478 -0.006,-0.104018 -0.01876,-0.211767 0.01291,-0.313158 0.03681,-0.145875 0.06733,-0.293552 0.108519,-0.438216 0.0053,-0.03102 0.01299,-0.06165 0.0155,-0.09302 0.0028,-0.03534 2.65e-4,-0.07101 0,-0.106455 -0.0013,-0.169971 -0.01169,-0.33955 -0.0093,-0.509529 0.0052,-0.04739 0.0081,-0.095 0.0155,-0.142111 0.02043,-0.130759 0.0064,0.135152 0.02532,-0.09612 0.0069,-0.08438 -0.0095,-0.170673 -0.0031,-0.255281 0.0085,-0.230693 0.03766,-0.464119 -0.0181,-0.691949 -0.0393,-0.160626 0.0232,-0.255273 0.105421,-0.269751 z m 8.596373,0.966867 c 0.07739,-0.01487 0.175242,0.05014 0.225309,0.207737 0.02883,0.0907 0.01744,0.186772 0.02532,0.27957 0.0043,0.05046 0.02693,0.105603 0.04186,0.152963 0.0383,0.0769 0.02193,0.163526 0.02585,0.244946 0.0029,0.06099 0.01781,0.121952 0.03876,0.1788 0.04643,0.06393 0.02421,0.145079 0.02842,0.216009 7.94e-4,0.01495 0.01315,0.03278 0.01654,0.04754 0.0048,0.02056 0.0075,0.04178 0.01138,0.06253 2.65e-4,0.09879 -0.0048,0.197385 -0.0036,0.296625 0.0063,0.03653 -0.0063,0.07658 0.0011,0.112654 0.0013,0.0065 0.0079,0.01064 0.01085,0.01654 0.01418,0.02855 0.02392,0.05924 0.03566,0.08888 0.04679,0.09995 0.07448,0.162933 0.05116,0.276985 0.0019,0.01828 0.0024,0.04046 0.0026,0.05375 0.0082,0.111418 -0.02821,0.214532 -0.07596,0.313158 0.0055,0.02784 0.01109,0.07866 0.01188,0.09043 -0.0024,0.09675 -0.01675,0.09777 -0.0739,0.213424 0.0027,0.01823 0.0051,0.03654 0.0078,0.05478 0.0028,0.03797 -0.0044,0.110823 -0.0041,0.117821 7.94e-4,0.01341 0.0011,0.02638 0.0011,0.03979 7.94e-4,0.330729 -0.335531,0.331242 -0.33383,5.29e-4 5.1e-5,-0.01016 -5.29e-4,-0.02035 -0.0011,-0.03049 -0.0013,-0.04653 0.0029,-0.06564 0.0052,-0.0956 0.0044,-0.01124 -0.02122,-0.11731 -0.02119,-0.117821 0.0037,-0.07025 0.03341,-0.12985 0.08527,-0.175183 3.8e-5,-0.01826 -0.006,-0.03998 -0.0078,-0.05633 -0.0069,-0.06447 -0.01339,-0.133863 0.03204,-0.189653 0.0074,-0.01331 0.03731,-0.06882 0.04031,-0.08216 0.0057,-0.02553 -0.0046,-0.05485 5.29e-4,-0.08061 7.94e-4,-0.0411 -0.0098,-0.08148 0.0047,-0.121958 0.0013,-0.0052 0.0011,-0.0029 0.0016,-0.0052 -0.01593,-0.0323 -0.0209,-0.04222 -0.03721,-0.08268 -0.04311,-0.108977 -0.0808,-0.218371 -0.0708,-0.337447 -7.93e-4,-0.07984 -0.0064,-0.169614 0.0088,-0.245462 -0.0072,-0.07041 0.0081,0.07137 -0.01963,-0.08268 -0.0061,-0.03413 -0.0099,-0.06877 -0.01241,-0.103354 -5.29e-4,-0.0082 0,-0.0172 0.0031,-0.02479 0.0016,-0.0042 0.01132,-0.0044 0.01034,-0.0088 -0.0047,-0.02011 -0.01683,-0.03754 -0.02532,-0.05633 -0.03333,-0.107027 -0.0494,-0.189791 -0.0553,-0.303342 -5.29e-4,-0.01037 0.0077,-0.06325 0.0062,-0.07235 -0.0029,-0.01839 -0.01167,-0.03505 -0.01757,-0.05271 -0.02661,-0.08535 -0.04874,-0.163274 -0.05684,-0.253217 -0.01807,-0.20044 0.03037,0.143333 -0.0041,-0.139525 -0.0031,-0.02553 -0.01008,-0.05072 -0.01498,-0.07596 -0.03174,-0.162288 0.02492,-0.256956 0.10232,-0.271817 z m 0.340548,2.886644 c -0.0052,0.0051 -0.01058,0.01016 -0.01551,0.0155 -0.0038,0.0041 0.01164,-0.0047 0.01394,-0.0098 7.94e-4,-0.0019 7.94e-4,-0.0039 0.0016,-0.0057 z" />
    </clipPath>
    <clipPath
       clipPathUnits="userSpaceOnUse"
       id="clipPath1003">
      <path
         id="path1005"
         style="fill:#ff0000;fill-opacity:1;fill-rule:nonzero;stroke:none;stroke-width:0.264583"
         d="M 43.646947,65.918456 V 83.916324 H 56.485441 V 65.918456 h -1.958536 c 0.0043,0.05046 0.02693,0.105603 0.04186,0.152963 0.0383,0.0769 0.02193,0.163526 0.02585,0.244946 0.0029,0.06099 0.01781,0.121952 0.03876,0.1788 0.04643,0.06393 0.02421,0.145079 0.02842,0.216009 7.93e-4,0.01495 0.01315,0.03278 0.01654,0.04754 0.0048,0.02056 0.0075,0.04178 0.01138,0.06253 2.65e-4,0.09879 -0.0048,0.197385 -0.0036,0.296625 0.0063,0.03653 -0.0063,0.07658 0.0011,0.112654 0.0013,0.0065 0.0079,0.01064 0.01085,0.01654 0.01418,0.02855 0.02392,0.05924 0.03566,0.08888 0.04679,0.09995 0.07448,0.162933 0.05116,0.276985 0.0019,0.01828 0.0024,0.04046 0.0026,0.05375 0.0082,0.111418 -0.02821,0.214532 -0.07596,0.313158 0.0055,0.02784 0.01109,0.07866 0.01188,0.09043 -0.0024,0.09675 -0.01675,0.09777 -0.0739,0.213424 0.0027,0.01823 0.0051,0.03654 0.0078,0.05478 0.0028,0.03797 -0.0044,0.110823 -0.0041,0.117821 7.93e-4,0.01341 0.0011,0.02638 0.0011,0.03979 7.94e-4,0.330729 -0.335531,0.331242 -0.33383,5.29e-4 5e-5,-0.01016 -5.29e-4,-0.02035 -0.0011,-0.03049 -0.0013,-0.04653 0.0029,-0.06564 0.0052,-0.0956 0.0044,-0.01125 -0.02122,-0.117311 -0.02119,-0.117822 0.0037,-0.07025 0.03341,-0.12985 0.08527,-0.175183 3.7e-5,-0.01826 -0.006,-0.03998 -0.0078,-0.05633 -0.0069,-0.06447 -0.01339,-0.133863 0.03204,-0.189653 0.0074,-0.01331 0.03731,-0.06882 0.04031,-0.08216 0.0057,-0.02553 -0.0046,-0.05485 5.3e-4,-0.08061 7.93e-4,-0.0411 -0.0098,-0.08148 0.0047,-0.121958 0.0013,-0.0052 0.0011,-0.0029 0.0016,-0.0052 -0.01593,-0.0323 -0.0209,-0.04222 -0.03721,-0.08268 -0.04311,-0.108977 -0.0808,-0.218371 -0.0708,-0.337447 -7.94e-4,-0.07984 -0.0064,-0.169614 0.0088,-0.245462 -0.0072,-0.07041 0.0081,0.07137 -0.01963,-0.08268 -0.0061,-0.03413 -0.0099,-0.06877 -0.01241,-0.103354 -5.29e-4,-0.0082 0,-0.0172 0.0031,-0.02479 0.0016,-0.0042 0.01132,-0.0044 0.01035,-0.0088 -0.0047,-0.02011 -0.01683,-0.03754 -0.02532,-0.05633 -0.03333,-0.107027 -0.04939,-0.189791 -0.0553,-0.303342 -5.29e-4,-0.01037 0.0077,-0.06325 0.0062,-0.07235 -0.0029,-0.01839 -0.01167,-0.03505 -0.01757,-0.05271 -0.02661,-0.08535 -0.04874,-0.163274 -0.05684,-0.253217 h -8.304538 c -8.2e-5,0.01 -1.99e-4,-2.24e-4 -0.0011,0.02842 0.0011,0.159356 0.0094,0.318635 0.01085,0.478006 2.65e-4,0.03685 0.0028,0.07385 0,0.110588 -0.0037,0.04794 -0.01315,0.09499 -0.01963,0.142627 -0.0416,0.155935 -0.07528,0.313774 -0.11472,0.470254 -0.02162,0.06858 -0.0071,0.141732 -0.0031,0.212392 0.0011,0.01823 -0.0021,0.03733 0.0031,0.05478 0.0032,0.01045 0.01408,0.01651 0.02119,0.02479 0.0071,0.01042 0.01228,0.02252 0.02119,0.03152 0.01148,0.01167 0.02553,0.02027 0.03876,0.02997 0.07006,0.05116 0.05362,0.01765 0.118337,0.158131 0.01,0.02172 0.02439,0.110731 0.03049,0.146759 0.01736,0.04742 -0.0021,0.100016 0.0041,0.147797 7.94e-4,0.006 0.0081,0.0091 0.01085,0.01447 0.0043,0.0084 0.0083,0.01714 0.01035,0.02635 0.007,0.03198 0.01103,0.06436 0.01654,0.09664 0.01461,0.04905 -0.01265,0.132475 -0.0067,0.178284 5.29e-4,0.0036 0.0083,5.3e-4 0.01085,0.0031 0.0043,0.0042 0.0062,0.0099 0.0083,0.01551 0.01082,0.02894 0.01998,0.05862 0.02997,0.08785 0.04608,0.125593 0.07586,0.23685 0.04909,0.371036 -0.03339,0.101682 1.54e-4,-0.004 -5.29e-4,-0.03462 -0.0071,-0.33065 -0.30766,0.378499 -0.330729,0.04858 -7.94e-4,-0.01299 -0.0041,-0.02635 -0.0026,-0.03928 0.0024,-0.01889 0.0083,-0.04355 0.01241,-0.05943 0.0032,-0.0073 0.0071,-0.01508 0.0067,-0.01757 -0.0074,-0.05536 -0.04074,-0.107196 -0.05064,-0.162266 -0.0145,-0.04379 -0.03576,-0.08536 -0.04651,-0.130223 -0.019,-0.07944 -0.01884,-0.139488 -0.01085,-0.217043 -5.29e-4,-0.06604 0.003,0.01431 -0.02119,-0.09095 -0.02064,-0.08974 -0.01381,-0.108818 -0.0186,-0.182417 -0.003,-0.01752 -0.0081,-0.03497 -0.0093,-0.05271 -5.3e-4,-0.0098 0.03049,-0.0094 0.02429,-0.01707 -0.01733,-0.02151 -0.04589,-0.03136 -0.06615,-0.05013 -0.09594,-0.08895 -0.08084,-0.07637 -0.136427,-0.171566 -0.01572,-0.04544 -0.03477,-0.08993 -0.04702,-0.136427 -0.0046,-0.01765 -0.0021,-0.03654 -0.0031,-0.05478 -0.006,-0.104018 -0.01876,-0.211767 0.01291,-0.313158 0.03681,-0.145875 0.06733,-0.293553 0.108519,-0.438216 0.0053,-0.03102 0.01299,-0.06165 0.0155,-0.09302 0.0028,-0.03534 2.65e-4,-0.07101 0,-0.106455 -0.0013,-0.169971 -0.01169,-0.339551 -0.0093,-0.509529 3.7e-5,-2.65e-4 -3.7e-5,-7.94e-4 0,-0.0011 z m 10.969874,2.399337 c -0.0052,0.0051 -0.01058,0.01016 -0.01551,0.0155 -0.0038,0.0041 0.01164,-0.0047 0.01394,-0.0098 7.94e-4,-0.0019 7.94e-4,-0.0039 0.0016,-0.0057 z" />
    </clipPath>
    <clipPath
       clipPathUnits="userSpaceOnUse"
       id="clipPath1267">
      <path
         id="path1269"
         style="fill:#ff0000;fill-opacity:1;fill-rule:nonzero;stroke:none;stroke-width:0.264583"
         d="m 38.884447,46.257641 v 22.231202 h 6.879685 c -5.29e-4,-0.0019 -0.0016,-0.0037 -0.0021,-0.0057 -0.0145,-0.04379 -0.03576,-0.08536 -0.04651,-0.130223 -0.019,-0.07944 -0.01884,-0.139491 -0.01085,-0.217043 -5.29e-4,-0.06604 0.003,0.01431 -0.02119,-0.09095 -0.02064,-0.08974 -0.01381,-0.108817 -0.0186,-0.182417 -0.0013,-0.0079 -0.0024,-0.01587 -0.0041,-0.02376 -0.05258,-0.0095 -0.09884,-0.06214 -0.108003,-0.157615 -0.02463,-0.02698 -0.04025,-0.0498 -0.07545,-0.110069 -0.0055,-0.01601 -0.01061,-0.03216 -0.01654,-0.04806 -0.0066,0.03035 -0.03944,0.02887 -0.03927,-0.0088 v -0.0083 c -8.2e-5,-0.0061 -1.04e-4,-0.01196 5.29e-4,-0.0181 -0.0013,-0.0085 -0.0019,-0.01545 0.0026,-0.02326 0.0021,-0.004 0.0033,-0.0074 0.0057,-0.01085 0.0079,-0.01146 0.0049,-0.0078 0.0041,-0.0072 -0.0011,-0.004 -0.0031,-0.0078 -0.0041,-0.01188 -0.0046,-0.01765 -0.0021,-0.03654 -0.0031,-0.05478 -0.006,-0.104018 -0.01876,-0.211767 0.01291,-0.313158 0.03347,-0.132633 0.06289,-0.266435 0.0987,-0.398425 v -0.01394 -0.03101 -0.03721 -0.03462 -0.02532 -0.02119 c 0,-0.0067 8e-6,-0.01336 0,-0.02016 0,-0.0079 -2.4e-5,-0.0159 0,-0.02376 0,-0.01193 -1.72e-4,-0.02373 0,-0.03566 2.09e-4,-0.01077 7.94e-4,-0.02185 -0.0011,-0.03256 0.0021,-0.01381 0.0011,-0.0069 0.0036,-0.01654 0.0028,-0.01093 0.0049,-0.02252 0.01241,-0.03152 0.0065,-0.0094 0.0067,-0.0114 0.0083,-0.01757 -0.0033,-0.135911 -0.0092,-0.271711 -0.0072,-0.407728 0.0052,-0.04739 0.0081,-0.095 0.0155,-0.142111 0.02043,-0.130759 0.0064,0.13521 0.02532,-0.09612 0.0069,-0.08438 -0.0095,-0.170673 -0.0031,-0.255281 0.0085,-0.230693 0.03788,-0.464119 -0.0181,-0.691949 -0.0393,-0.160626 0.0232,-0.255273 0.10542,-0.269751 0.0822,-0.01447 0.184243,0.0513 0.223758,0.211874 0.06172,0.25079 0.03113,0.507301 0.02326,0.761195 2.65e-4,0.02858 -0.0019,0.05646 -0.0021,0.08475 0.08504,-0.142624 0.170524,-0.286102 0.285771,-0.40721 0.211836,-0.552685 0.554379,-0.820401 0.874882,-0.857313 0.444121,-0.05115 0.842301,0.335362 0.783931,0.997355 0.131932,0.07763 0.251055,0.201482 0.339513,0.375687 0.09075,0.0108 0.165238,0.01839 0.260451,0.05788 0.06691,0.02776 0.128876,0.06607 0.191201,0.103355 7.94e-4,5.29e-4 0.0016,0.0011 0.0026,0.0016 0.0108,0.0048 0.02177,0.0092 0.03204,0.01498 0.0016,7.94e-4 0.0024,0.0016 0.0047,0.0031 0.05228,0.02582 0.104158,0.05142 0.155546,0.07906 0.0057,0.0031 0.01021,0.0058 0.01757,0.0098 0.04292,0.01545 0.08488,0.03334 0.127124,0.05064 -0.0026,-7.94e-4 -0.0082,-0.0024 -0.0062,-0.0016 0.0079,0.0032 0.01577,0.006 0.02376,0.0088 -0.0057,-0.0024 -0.01132,-0.0049 -0.01704,-0.0072 0.0037,0.0011 0.0058,0.0019 0.0088,0.0026 0.0053,0.0024 0.01339,0.006 0.01603,0.0072 0.0071,0.0024 0.01408,0.0052 0.02119,0.0078 0.02678,0.01027 0.05396,0.0204 0.08061,0.03101 0.03768,0.0076 0.07482,0.01516 0.11679,0.03152 -0.01035,-0.0016 -0.04107,-0.0075 -0.03101,-0.0047 0.245835,0.0699 0.102092,0.0078 0.37207,0.140042 0.0098,0.0048 0.01828,0.01207 0.02739,0.0181 0.0024,0.0016 0.0033,0.0029 0.0072,0.0052 0.02569,0.0092 0.05118,0.01929 0.07648,0.02945 0.01963,0.005 0.03866,0.01191 0.05788,0.01757 0.08795,0.02596 0.08524,0.02686 0.116271,0.03721 0.01048,8e-6 0.02106,-1.9e-5 0.03152,0 0.02705,7.93e-4 0.05409,0.0016 0.08113,0.0026 0.06461,-0.01117 0.128067,-0.02122 0.195337,-0.0217 0.123148,-7.94e-4 0.129765,0.0039 0.242364,0.02016 -0.01095,-1.03e-4 -0.0429,-0.0041 -0.03256,-5.29e-4 0.01169,0.0041 0.02484,0.0016 0.03721,0.0021 0.0036,1.49e-4 0.0072,1.94e-4 0.01085,5.3e-4 5.29e-4,2.3e-5 0.0011,-1.4e-5 0.0016,0 0.02535,0.0011 0.05063,0.0016 0.07596,0.0026 0.06271,0.0024 0.125714,0.01072 0.188103,5.3e-4 0.05625,-0.0019 0.02326,-5.1e-5 0.0925,-0.01498 0.01164,-0.0064 -0.0019,0.0011 0.01138,-0.0062 0.06646,-0.02405 0.132302,-0.05044 0.199472,-0.07234 0.02676,-0.0088 0.05482,-0.01294 0.08217,-0.01963 0.03517,-0.0086 0.07007,-0.01863 0.10542,-0.02635 0.650153,-0.460658 1.203312,-0.34763 1.412317,0.01447 0.0091,-0.01066 0.01807,-0.02148 0.02739,-0.03204 0.01524,-0.01725 0.100917,-0.09812 0.10542,-0.10232 0.0058,-0.0054 0.01204,-0.01029 0.0181,-0.0155 0.0013,-0.0011 0.0019,-0.0013 0.0036,-0.0031 0.0019,-0.0027 0.0032,-0.0057 0.0052,-0.0083 0.07394,-0.100581 0.150839,-0.174911 0.226343,-0.272335 0.31655,-0.408448 0.659961,-0.588812 0.951881,-0.603063 0.496837,-0.02426 0.843015,0.432803 0.658357,1.060916 0.0024,0.04564 -0.0011,0.09197 0.0011,0.136943 0.0029,0.06099 0.01781,0.121952 0.03876,0.1788 0.04643,0.06393 0.02421,0.145079 0.02842,0.216009 7.94e-4,0.01495 0.01315,0.03278 0.01654,0.04754 0.0048,0.02056 0.0075,0.04178 0.01138,0.06253 2.62e-4,0.09879 -0.0048,0.197384 -0.0036,0.296624 0.0063,0.03653 -0.0048,0.07658 0.0026,0.112655 0.0013,0.0065 0.0079,0.01064 0.01085,0.01654 0.01418,0.02855 0.02392,0.05923 0.03566,0.08888 0.04679,0.09995 0.07448,0.162933 0.05116,0.276985 0.0019,0.01828 0.0029,0.04039 0.0031,0.05374 0.0082,0.111416 -0.02822,0.214533 -0.07596,0.313159 0.0055,0.02784 0.01058,0.07866 0.01138,0.09043 -0.0024,0.09675 -0.01675,0.09777 -0.0739,0.213424 0.0027,0.01823 0.0066,0.03654 0.0093,0.05478 0.0028,0.03797 -0.0034,0.110824 -0.0031,0.117822 5.29e-4,0.01095 0.0021,0.0217 0.0021,0.03256 h 6.45152 V 46.260226 Z m 9.815423,19.553846 c -0.0028,-0.0013 -0.0055,-0.0028 -0.0083,-0.0041 -0.0095,-0.0047 -0.01781,-0.0088 -0.02842,-0.01394 0.02238,0.01336 0.04474,0.02703 0.0677,0.03928 0.01106,0.0059 -0.0159,-0.01191 -0.03101,-0.02119 z m -2.588472,-0.40876 c 0.01482,-0.01823 -0.03789,0.02745 -0.05685,0.04134 -0.05311,0.05476 -0.09447,0.0998 -0.131773,0.150379 -2.48e-4,0.007 -1.53e-4,0.01416 -5.29e-4,0.02119 0.06354,-0.07053 0.129321,-0.139306 0.189138,-0.212905 z m 2.1239,0.28887 c 0.0046,0.01045 0.008,0.02233 0.01241,0.03307 0.02294,0.0079 0.04478,0.01905 0.06821,0.02532 0.04452,0.01193 -0.01307,-0.02336 -0.08062,-0.0584 z m 0.825273,0.293523 c 0.0213,0.0053 0.03997,0.009 0.05943,0.01291 -0.0028,-7.94e-4 -0.0034,-0.0011 -0.0052,-0.0016 -0.01812,-0.0041 -0.07229,-0.01585 -0.05426,-0.01138 z m 0.677995,0.250629 c 0.0232,0.0098 0.04705,0.01701 0.07028,0.02739 0.02069,0.0092 -0.04159,-0.01712 -0.06253,-0.02585 -0.0019,-5.29e-4 -0.0057,-0.0011 -0.0078,-0.0016 z m 4.71134,1.392164 c -0.0095,0.01344 -0.0218,0.02688 -0.03204,0.04031 0.0011,0.0028 0.0021,0.0059 0.0031,0.0088 0.01598,-0.0019 0.0277,-0.0057 0.0341,-0.01241 3.7e-5,-0.01095 -0.0011,-0.02167 -0.0016,-0.03255 -7.93e-4,-0.0011 -0.0028,-0.0029 -0.0036,-0.0041 z m 0.0057,0.09457 c -0.01344,0.01341 -0.03935,0.03032 -0.09353,0.09457 -0.02674,7.94e-4 -0.04635,-0.0028 -0.06408,-0.0088 -0.08036,0.08384 -0.172826,0.166632 -0.283703,0.247015 -0.06491,0.04706 -0.06328,0.04535 -0.126089,0.09198 -0.0094,0.007 -0.03742,0.02869 -0.02842,0.02119 0.01918,-0.01593 0.04052,-0.02967 0.05891,-0.04651 0.01617,-0.01479 0.06168,-0.06224 0.04496,-0.04806 -0.07523,0.06379 -0.147148,0.131646 -0.220657,0.197403 -0.07968,0.03865 -0.110347,0.06859 -0.170016,0.117824 -0.05316,0.044 -0.08171,0.0649 -0.137977,0.09973 h 0.88987 c -1.43e-4,-0.0076 -0.0021,-0.01519 -0.0026,-0.02273 -0.0013,-0.04653 0.0039,-0.06564 0.0062,-0.0956 0.0044,-0.01124 -0.02122,-0.117311 -0.02119,-0.117821 0.0037,-0.07025 0.03347,-0.12985 0.08526,-0.175183 3.7e-5,-0.01826 -0.0075,-0.03997 -0.0093,-0.05633 -0.0069,-0.06447 -0.01339,-0.133863 0.03204,-0.189653 0.0074,-0.01331 0.03731,-0.06882 0.04031,-0.08216 0.0019,-0.0085 5.3e-4,-0.01778 0,-0.02687 z m -6.16345,0.335899 c -0.0087,0.02021 -0.01259,0.04842 -0.01757,0.07493 0.03095,-0.03314 0.04855,-0.06432 0.01757,-0.07493 z m 6.32468,0.259414 c -0.0052,0.0051 -0.01058,0.01016 -0.01551,0.0155 -0.0038,0.0041 0.01164,-0.0047 0.01394,-0.0098 7.93e-4,-0.0019 7.93e-4,-0.0039 0.0016,-0.0057 z m -6.353101,0.03669 c 2.9e-5,5.29e-4 5.29e-4,0.0013 5.29e-4,0.0021 0.01249,0.0038 0.01487,0.006 0.02273,0.0072 0.01048,0.0016 0.02103,0.0024 0.03152,0.0036 -0.01826,-0.0044 -0.03655,-0.0085 -0.05478,-0.01291 z m 0.236161,0.01498 c -0.0028,-5.29e-4 0.008,0.0024 0.0083,0.0026 2.65e-4,-8.2e-5 7.94e-4,-5.29e-4 0.0011,-5.29e-4 -0.0031,-5.29e-4 -0.0062,-0.0016 -0.0093,-0.0021 z m 0.03101,0.0067 c -0.0019,2.64e-4 -0.0039,7.4e-5 -0.0057,5.29e-4 0.01331,0.0036 0.01828,0.0052 0.02739,0.0078 0.08283,0.0084 2.4e-5,2.65e-4 0.03617,0.0036 -0.01921,-0.0045 -0.0386,-0.0078 -0.05788,-0.01188 z m -0.264583,0.0031 c 0.0019,0.03389 0.007,0.07316 0.01035,0.109554 h 0.617016 c 7.94e-4,-0.0084 -2.64e-4,-0.02085 0.0011,-0.02791 -0.01831,0.0021 -0.04751,-0.01413 -0.0832,-0.04083 -0.02643,7.94e-4 -0.05484,0.003 -0.07545,-5.29e-4 -0.02424,-0.0038 -0.04787,-0.01032 -0.07183,-0.0155 -0.02715,0.0016 -0.05458,0.0041 -0.07906,0.0036 -0.04293,-7.94e-4 -0.0858,-0.0048 -0.128675,-0.0072 -0.01622,-0.0039 -0.03238,-0.0079 -0.04858,-0.01188 -0.02664,0.0011 -0.05412,0.0021 -0.07596,0.0031 -0.02191,-0.0041 -0.04369,-0.0086 -0.06563,-0.01241 z m 0.471289,0.01704 c -0.02088,-0.0037 0.0297,0.0069 0.06201,0.01394 -7.94e-4,-5.29e-4 -0.0019,-0.0013 -0.0026,-0.0021 -0.01979,-0.0041 -0.03955,-0.0084 -0.05943,-0.01188 z m -2.068092,0.04496 c -0.0081,0.01619 -0.01741,0.0312 -0.02532,0.04754 h 0.152961 c 0.0016,-0.004 0.0031,-0.0084 0.0047,-0.01241 0.0016,-0.0036 -0.0011,-0.0074 0.0036,-0.01085 -0.04532,-0.0082 -0.09062,-0.01617 -0.135909,-0.02429 z m 2.417424,0.0088 c 0.0011,0.01259 2.25e-4,0.02577 5.29e-4,0.03876 h 0.464571 c -0.0031,-0.0011 -0.0084,-5.3e-4 -0.01138,-0.0016 -0.08644,0.0036 -0.135427,-0.0013 -0.298172,-0.03204 -0.0085,2.01e-4 -0.0042,0.0011 -0.02016,0.0011 -0.02893,2.01e-4 -0.0579,-0.0013 -0.08682,-0.0021 -0.01617,-0.0016 -0.03238,-0.0028 -0.04857,-0.0041 z m 0.241329,0.0011 c -0.0042,1.64e-4 -0.0039,1.48e-4 -0.0072,5.29e-4 0.0019,1.35e-4 0.0038,1.67e-4 0.0057,5.29e-4 7.94e-4,-2.64e-4 0.0021,-0.0011 0.0016,-0.0011 z m 0.624252,0.02635 c -0.01828,0.0016 -0.03661,0.0024 -0.05478,0.0047 -0.01984,0.0024 0.02958,-0.0021 0.05995,-0.0036 -0.0019,-2.65e-4 -0.0034,-7.94e-4 -0.0052,-0.0011 z m 0.02997,0.0052 c -0.01212,0.0019 -0.02408,0.0043 -0.03617,0.0062 h 0.07286 c -0.01193,-0.0021 -0.02431,-0.0042 -0.03669,-0.0062 z" />
    </clipPath>
  </defs>
  <sodipodi:namedview
     id="base"
     pagecolor="#ffffff"
     bordercolor="#666666"
     borderopacity="1.0"
     inkscape:pageopacity="0.0"
     inkscape:pageshadow="2"
     inkscape:zoom="0.49497475"
     inkscape:cx="66.004323"
     inkscape:cy="291.81717"
     inkscape:document-units="mm"
     inkscape:current-layer="layer1"
     inkscape:document-rotation="0"
     showgrid="false"
     inkscape:window-width="1535"
     inkscape:window-height="876"
     inkscape:window-x="65"
     inkscape:window-y="24"
     inkscape:window-maximized="1" />
  <metadata
     id="metadata932">
    <rdf:RDF>
      <cc:Work
         rdf:about="">
        <dc:format>image/svg+xml</dc:format>
        <dc:type
           rdf:resource="http://purl.org/dc/dcmitype/StillImage" />
        <dc:title></dc:title>
      </cc:Work>
    </rdf:RDF>
  </metadata>
  <g
     inkscape:label="layer1"
     inkscape:groupmode="layer"
     id="layer1">
    <rect
       style="fill:none;fill-opacity:1;fill-rule:evenodd;stroke:#69ffff;stroke-width:2.89752799;stroke-linecap:round;stroke-linejoin:round;stroke-miterlimit:4;stroke-dasharray:none;stroke-opacity:1"
       id="rect880"
       width="49.64484"
       height="58.14259"
       x="25.17758"
       y="32.099094"
       clip-path="url(#clipPath983)"
       transform="matrix(1.1360527,0,0,0.9124105,-6.802635,12.257694)" />
    <circle
       style="fill:none;fill-rule:evenodd;stroke:#69ffff;stroke-width:2.89752799;stroke-miterlimit:4;stroke-dasharray:none;stroke-opacity:1"
       id="path882"
       cx="50"
       cy="57.373283"
       r="10.240617"
       clip-path="url(#clipPath1267)"
       transform="matrix(1.1360527,0,0,0.9124105,-6.802635,12.257694)" />
    <path
       style="fill:none;stroke:#69ffff;stroke-width:2.89752799;stroke-linecap:butt;stroke-linejoin:miter;stroke-miterlimit:4;stroke-dasharray:none;stroke-opacity:1"
       d="m 44.581457,66 c -1.069202,24.336065 12.80156,21.051714 10.837086,0"
       id="path884"
       sodipodi:nodetypes="cc"
       clip-path="url(#clipPath1003)"
       transform="matrix(1.1360527,0,0,0.9124105,-6.8777746,12.257694)" />
    <path
       style="fill:none;stroke:#69ffff;stroke-width:2.95;stroke-linecap:butt;stroke-linejoin:miter;stroke-miterlimit:4;stroke-dasharray:none;stroke-opacity:1"
       d="M 26.686121,41.24979 V 25.03144 c 2.966124,-26.5648631 46.060207,-21.8307661 46.627758,0 v 16.424371"
       id="path1275"
       sodipodi:nodetypes="cccc" />
    <path
       style="fill:none;stroke:#69ffff;stroke-width:2.95;stroke-linecap:butt;stroke-linejoin:miter;stroke-miterlimit:4;stroke-dasharray:none;stroke-opacity:1"
       d="m 34.04106,41.376623 c -0.267297,-0.742758 0,-16.345183 0,-16.345183 1.65976,-16.9575787 30.545046,-16.3959573 32.036687,0 v 16.238729"
       id="path1277"
       sodipodi:nodetypes="cccc" />
  </g>
</svg>
