<?xml version="1.0" encoding="UTF-8" standalone="no"?>
<svg
   width="100mm"
   height="100mm"
   viewBox="0 0 100 100"
   version="1.1"
   id="svg881"
   xmlns="http://www.w3.org/2000/svg"
   xmlns:svg="http://www.w3.org/2000/svg"
   xmlns:rdf="http://www.w3.org/1999/02/22-rdf-syntax-ns#"
   xmlns:cc="http://creativecommons.org/ns#"
   xmlns:dc="http://purl.org/dc/elements/1.1/">
  <defs
     id="defs875" />
  <metadata
     id="metadata878">
    <rdf:RDF>
      <cc:Work
         rdf:about="">
        <dc:format>image/svg+xml</dc:format>
        <dc:type
           rdf:resource="http://purl.org/dc/dcmitype/StillImage" />
      </cc:Work>
    </rdf:RDF>
  </metadata>
  <g
     id="layer1">
    <path
       style="fill:none;stroke:#69fffe;stroke-width:2;stroke-linecap:butt;stroke-linejoin:miter;stroke-miterlimit:4;stroke-dasharray:none;stroke-opacity:1"
       d="m 67.839909,-2.6890951 c 0.471651,3.08597436 -1.09073,4.8172927 4.187868,11.1046711 0.479832,7.646514 -4.559699,12.508554 -7.694462,18.331534 6.927123,-3.511782 12.770736,-2.840337 18.220872,-12.264286 6.456278,3.224864 14.526541,4.85708 21.787123,3.918519"
       id="path936" />
    <path
       style="fill:none;stroke:#69ffff;stroke-width:2;stroke-linecap:butt;stroke-linejoin:miter;stroke-miterlimit:4;stroke-dasharray:none;stroke-opacity:1"
       d="m 64.333315,26.74711 c 31.796389,-0.650679 40.726405,15.816786 43.846775,36.633446 l 0.14958,-0.212371"
       id="path938" />
    <ellipse
       style="fill:none;fill-opacity:1;fill-rule:evenodd;stroke:#69ffff;stroke-width:1.765;stroke-miterlimit:4;stroke-dasharray:none;stroke-opacity:1"
       id="path1817"
       cx="43.308266"
       cy="89.442924"
       rx="51.2551"
       ry="25.691544" />
    <ellipse
       style="fill:#69ffff;fill-opacity:1;fill-rule:evenodd;stroke-width:0.264583"
       id="path2391"
       cx="43.471222"
       cy="87.202171"
       rx="37.36768"
       ry="18.350483" />
    <path
       style="fill:#69ffff;stroke:none;stroke-width:0.264583px;stroke-linecap:butt;stroke-linejoin:miter;stroke-opacity:1;fill-opacity:0.64158982"
       d="M 103.38722,9.8922847 76.618186,10.757364 c -6.522839,0.787295 -10.38708,2.971545 -14.891602,4.81936 -6.079076,3.893858 -9.58241,8.712794 -11.392635,14.13981 l -8.931285,42.366408 12.36527,7.139093 10.565381,-52.474925 c 10.473097,-3.200251 16.308853,-7.33635 18.220872,-12.264286 10.440559,4.519734 16.440458,4.549379 21.787123,3.918519 z"
       id="path3568" />
  </g>
</svg>
