<?xml version="1.0" encoding="UTF-8" standalone="no"?>
<svg
   xmlns:dc="http://purl.org/dc/elements/1.1/"
   xmlns:cc="http://creativecommons.org/ns#"
   xmlns:rdf="http://www.w3.org/1999/02/22-rdf-syntax-ns#"
   xmlns:svg="http://www.w3.org/2000/svg"
   xmlns="http://www.w3.org/2000/svg"
   xmlns:sodipodi="http://sodipodi.sourceforge.net/DTD/sodipodi-0.dtd"
   xmlns:inkscape="http://www.inkscape.org/namespaces/inkscape"
   width="100mm"
   height="100mm"
   viewBox="0 0 100 100"
   version="1.1"
   id="svg8"
   inkscape:version="1.0.2 (394de47547, 2021-03-26)"
   sodipodi:docname="gear.svg">
  <defs
     id="defs2" />
  <sodipodi:namedview
     id="base"
     pagecolor="#ffffff"
     bordercolor="#666666"
     borderopacity="1.0"
     inkscape:pageopacity="0.0"
     inkscape:pageshadow="2"
     inkscape:zoom="1"
     inkscape:cx="149.99052"
     inkscape:cy="318.90081"
     inkscape:document-units="mm"
     inkscape:current-layer="g1187"
     inkscape:document-rotation="0"
     showgrid="false"
     inkscape:window-width="1535"
     inkscape:window-height="876"
     inkscape:window-x="65"
     inkscape:window-y="24"
     inkscape:window-maximized="1" />
  <metadata
     id="metadata5">
    <rdf:RDF>
      <cc:Work
         rdf:about="">
        <dc:format>image/svg+xml</dc:format>
        <dc:type
           rdf:resource="http://purl.org/dc/dcmitype/StillImage" />
        <dc:title />
      </cc:Work>
    </rdf:RDF>
  </metadata>
  <g
     inkscape:label="Calque 1"
     inkscape:groupmode="layer"
     id="layer1">
    <g
       id="g1187"
       transform="translate(-2.3518696,-1.827843)">
      <g
         inkscape:label="Rendered Gears"
         transform="matrix(3.7853861,0,0,3.7869812,52.35187,51.827843)"
         id="g1529"
         style="stroke-width:0.46220686;stroke-miterlimit:4;stroke-dasharray:none;stroke:#69ffff;stroke-opacity:1">
        <path
           style="fill:none;stroke:#69ffff;stroke-width:0.46220686;stroke-miterlimit:4;stroke-dasharray:none;stroke-opacity:1"
           d="m 6.98367,-1.49459 0.57638,-0.12335 1.25731,0.22141 1.89394,1.22274 V 0.17379 L 8.81736,1.39653 7.56005,1.61794 6.98367,1.49459 6.52841,2.89575 7.06721,3.13475 7.95425,4.05289 8.76778,6.15535 8.56348,6.43655 6.31253,6.31253 5.16521,5.75262 4.77142,5.31405 3.57951,6.18002 3.87493,6.69006 4.05289,7.95425 3.47526,10.1334 3.14469,10.2408 1.39653,8.81736 0.79743,7.69 0.73664,7.10372 H -0.73664 L -0.79743,7.69 -1.39653,8.81736 -3.14469,10.2408 -3.47526,10.1334 -4.05289,7.95425 -3.87493,6.69006 -3.57951,6.18002 -4.77142,5.31405 -5.16521,5.75262 -6.31253,6.31253 -8.56348,6.43655 -8.76778,6.15535 -7.95425,4.05289 -7.06721,3.13475 -6.52841,2.89575 -6.98367,1.49459 -7.56005,1.61794 -8.81736,1.39653 -10.7113,0.17379 v -0.34758 l 1.89394,-1.22274 1.25731,-0.22141 0.57638,0.12335 0.45526,-1.40116 -0.5388,-0.239 -0.88704,-0.91814 -0.81353,-2.10246 0.2043,-0.2812 2.25095,0.12402 1.14732,0.55991 0.39379,0.43857 1.19191,-0.86597 -0.29542,-0.51004 -0.17796,-1.26419 0.57763,-2.17915 0.33057,-0.1074 1.74816,1.42344 0.5991,1.12736 0.06079,0.58628 H 0.73664 L 0.79743,-7.69 l 0.5991,-1.12736 1.74816,-1.42344 0.33057,0.1074 0.57763,2.17915 -0.17796,1.26419 -0.29542,0.51004 1.19191,0.86597 0.39379,-0.43857 1.14732,-0.55991 2.25095,-0.12402 0.2043,0.2812 -0.81353,2.10246 -0.88704,0.91814 -0.5388,0.239 z"
           id="path1525" />
        <circle
           style="fill:none;stroke:#69ffff;stroke-width:0.46220686;stroke-miterlimit:4;stroke-dasharray:none;stroke-opacity:1"
           id="path1527"
           cx="0"
           cy="0"
           r="3.889375" />
      </g>
    </g>
  </g>
</svg>
